<svg width="174.09" height="174.09" version="1.1" viewBox="0 0 46.060873 46.060873" xmlns="http://www.w3.org/2000/svg">
 <g transform="translate(-105.82 -70.093)">
  <circle cx="128.85" cy="93.123" r="23.03" fill="#f9f9f9"/>
  <g transform="matrix(1.7313 0 0 1.7313 -5.5619 -76.106)">
   <g>
    <ellipse cx="77.632" cy="104.89" rx="8.8231" ry="1.4507" opacity=".214"/>
    <path d="m76.909 87.901-0.8847 0.38861-0.84336 0.75241-0.21497 0.44648-0.12402 0.339 0.28112 0.81856 0.1571 0.48783-0.19017 0.66973s-0.56224 0.39688-0.59531 0.40514c-0.03307 0.0083-1.2237 0.48783-1.2237 0.48783l-0.98392 0.94258s-0.13229 0.62838-0.14056 0.678c-0.0083 0.04961-0.05788 1.2981-0.05788 1.2981l0.30592 0.62012 0.01783 0.18031-0.83638 0.58864-0.77721 0.66146-0.32246 0.55397-0.23978 0.58704 0.14056 0.7028 0.41697 0.50755-0.9048 0.72442-0.59531 0.66973-0.23978 0.82682 0.24805 0.82682 1.0666 0.92604 0.68626 0.36381 1.5048 0.52916 3.4065 0.47956 3.5471 0.21497 2.8773-0.33899 2.1332-0.57878 0.90951-0.71107 0.68626-0.71933 0.03307-1.1658-0.48782-0.97565-0.66394-0.66243 0.54818-0.67703 0.07441-0.68626-0.32246-0.81029-0.87643-0.9095-0.9438-0.57684 0.44771-0.98585 0.08268-1.3312-0.60358-1.2816-1.2733-1.0501-2.4557-1.1079-1.6785-0.47129-1.2981-0.64492-0.44648-0.71107 0.17363-0.60358 0.42168-0.47129z" fill="#73431f"/>
    <ellipse cx="76.73" cy="97.393" rx="1.3364" ry="2.1384" opacity=".474"/>
   </g>
   <path d="m82.267 97.335s0.86804 0.07096 1.3707-0.89962c0.97869-1.8899 0.25801-4.2654-4.7858-5.626-2.658-0.717-3.2429-1.6083-1.8541-2.8858 0.5018-0.4616-2.8613 1.0824-2.0014 2.3723s-0.1157 1.7588-1.4483 2.2499c-1.7947 0.66146-2.1309 3.7509-0.08042 4.8093" fill="none" stroke="#542014" stroke-linecap="round" stroke-linejoin="round" stroke-miterlimit="35.9" stroke-width=".26458"/>
   <ellipse cx="79.255" cy="97.393" rx="1.3364" ry="2.1384" opacity=".474"/>
   <g fill="none" stroke="#542014" stroke-linecap="round" stroke-linejoin="round" stroke-miterlimit="35.9" stroke-width=".26458">
    <path d="m83.481 96.767s4.5369 2.5257 0.49111 4.1627"/>
    <path d="m72.413 96.416s-4.5369 2.5257-0.49111 4.1627"/>
    <path d="m85.002 100.43s3.1254 2.5581-0.70726 4.2833c-3.8434 1.5394-9.4131 0.55532-11.606 0.21884-1.284-0.26911-6.2146-2.1763-1.8943-4.9114"/>
   </g>
   <g>
    <ellipse cx="76.683" cy="97.253" rx="1.3364" ry="2.1384" fill="#fff"/>
    <ellipse cx="76.192" cy="97.253" rx=".59786" ry=".90981"/>
    <ellipse cx="75.922" cy="96.868" rx=".15429" ry=".15377" fill="#fff"/>
    <ellipse cx="79.209" cy="97.253" rx="1.3364" ry="2.1384" fill="#fff"/>
    <ellipse cx="78.718" cy="97.253" rx=".59786" ry=".90981"/>
    <ellipse cx="78.448" cy="96.868" rx=".15429" ry=".15377" fill="#fff"/>
    <ellipse cx="79.5" cy="101.43" rx=".55542" ry=".59346" fill="#ff8080"/>
   </g>
   <ellipse cx="79.591" cy="101.75" rx=".69453" ry=".95911" fill-opacity="0" stroke="#542014" stroke-linecap="round" stroke-linejoin="round" stroke-miterlimit="35.9" stroke-width=".26458"/>
   <g fill="#542014">
    <circle cx="76.599" cy="90.743" r=".19487"/>
    <circle cx="76.963" cy="91.231" r=".28582"/>
    <circle cx="76.269" cy="91.239" r=".21141"/>
    <circle cx="73.433" cy="93.91" r=".11219"/>
    <circle cx="82.34" cy="93.325" r=".26928"/>
    <circle cx="82.853" cy="93.97" r=".28582"/>
    <circle cx="84.934" cy="102.15" r=".5504"/>
    <circle cx="84.95" cy="103.27" r=".21967"/>
    <circle cx="74.135" cy="104.25" r=".31889"/>
    <circle cx="71.953" cy="102.69" r=".28582"/>
    <circle cx="72.763" cy="102.84" r=".3685"/>
    <circle cx="73.118" cy="94.34" r=".14526"/>
   </g>
   <g fill="#ccc">
    <path d="m78.299 88.588s0.32705-1.1834 1.0929-0.75215c0.76588 0.4312 1.4544 0.16902 1.6382-0.32553 0.18382-0.49456 0.28552-0.73543 0.28552-0.73543s-0.19845 1.6031-0.53317 1.8151c-0.20801 0.13176-0.4286 0.15482-0.69428 0.05728-0.30254-0.1167-0.6557-0.61719-1.2058-0.09676-0.55008 0.52044-0.91845 1.4252-0.91845 1.4252z"/>
    <path d="m79.278 89.362s0.22096-0.79953 0.73843-0.50819c0.51747 0.29134 0.98267 0.1142 1.1069-0.21994 0.1242-0.33414 0.19291-0.49689 0.19291-0.49689s-0.13408 1.0831-0.36023 1.2264c-0.14054 0.08902-0.28958 0.1046-0.46909 0.0387-0.20441-0.07885-0.44302-0.417-0.81468-0.06538-0.37164 0.35165-0.62055 0.96295-0.62055 0.96295z"/>
    <circle transform="rotate(-26.327)" cx="23.024" cy="114.57" r=".87529" stroke="#483737" stroke-linecap="round" stroke-linejoin="round" stroke-miterlimit="35.9" stroke-width=".1061"/>
   </g>
   <g stroke="#483737" stroke-linecap="round" stroke-linejoin="round" stroke-miterlimit="35.9" stroke-width=".1061">
    <circle transform="rotate(-26.327)" cx="22.679" cy="114.3" r=".23209" fill="#686d9a"/>
    <path d="m71.22 92.865a0.3998 0.36901 63.673 0 0 0.48872 0.16083 0.3998 0.36901 63.673 0 0 0.1692 -0.48638z" fill="#fff"/>
    <circle transform="rotate(-26.327)" cx="23.4" cy="114.31" r=".23209" fill="#686d9a"/>
   </g>
   <g fill="none" stroke="#483737" stroke-width=".1061px">
    <path d="m71.617 91.614s-0.22276-0.89422 0.34268-1.2211c0.56543-0.32687 0.84473 0.079 0.84382 0.29917-9.14e-4 0.22017-0.84744 1.0785-0.84744 1.0785"/>
    <path d="m70.64 92.082s-0.56615-0.50981-1.1457-0.32768c-0.57951 0.18212-0.71382 0.71419-0.35181 0.89602 0.36201 0.18184 1.4322 8e-3 1.4322 8e-3"/>
    <path d="m71.825 91.673s0.01323-0.66048 0.36411-0.82887" stroke-linecap="round"/>
    <path d="m70.562 92.366s-0.63599-0.35492-0.96604-0.15499" stroke-linecap="round"/>
   </g>
  </g>
 </g>
</svg>
