<svg width="174.09" height="174.09" version="1.1" viewBox="0 0 46.060873 46.060873" xmlns="http://www.w3.org/2000/svg">
 <g transform="translate(-105.82 -70.093)">
  <g>
   <circle cx="128.85" cy="93.123" r="23.03" fill="#f9f9f9"/>
   <ellipse cx="128.85" cy="105.49" rx="15.276" ry="2.5117" opacity=".214"/>
   <path d="m127.59 76.081-1.5317 0.67281-1.4602 1.3027-0.37219 0.77302-0.21473 0.58692 0.48672 1.4172 0.27198 0.84459-0.32924 1.1595s-0.97343 0.68713-1.0307 0.70144c-0.0573 0.01437-2.1186 0.84459-2.1186 0.84459l-1.7035 1.6319s-0.22905 1.0879-0.24336 1.1738c-0.0144 0.08589-0.10021 2.2475-0.10021 2.2475l0.52966 1.0736 0.0309 0.31218-1.4481 1.0191-1.3456 1.1452-0.55829 0.95911-0.41514 1.0164 0.24336 1.2168 0.72191 0.87874-1.5665 1.2542-1.0307 1.1595-0.41514 1.4315 0.42946 1.4315 1.8466 1.6033 1.1882 0.62988 2.6054 0.91615 5.8978 0.83029 6.1412 0.37218 4.9817-0.58691 3.6933-1.0021 1.5747-1.2311 1.1882-1.2454 0.0573-2.0184-0.8446-1.6892-1.1495-1.1469 0.94909-1.1722 0.12883-1.1882-0.55829-1.4029-1.5174-1.5747-1.634-0.99871 0.77513-1.7068 0.14315-2.3047-1.045-2.2188-2.2045-1.818-4.2516-1.9182-2.906-0.81596-2.2475-1.1166-0.77302-1.2311 0.30062-1.045 0.73007-0.81596z" fill="#aa4737"/>
   <ellipse cx="127.28" cy="92.515" rx="2.3138" ry="3.7023" opacity=".474"/>
  </g>
  <path d="m136.87 92.415s1.5029 0.12286 2.3731-1.5575c1.6944-3.2721 0.44669-7.3849-8.2858-9.7405-4.6019-1.2414-5.6146-2.7844-3.2102-4.9963 0.86878-0.79918-4.9539 1.874-3.4651 4.1072 1.4888 2.2332-0.2003 3.045-2.5074 3.8954-3.1072 1.1452-3.6894 6.4942-0.13924 8.3265" fill="none" stroke="#5e271e" stroke-linecap="round" stroke-linejoin="round" stroke-miterlimit="35.9" stroke-width=".45808"/>
  <ellipse cx="131.66" cy="92.515" rx="2.3138" ry="3.7023" opacity=".474"/>
  <g fill="none" stroke="#5e271e" stroke-linecap="round" stroke-linejoin="round" stroke-miterlimit="35.9" stroke-width=".45808">
   <path d="m138.97 91.431s7.8549 4.3728 0.85027 7.2071"/>
   <path d="m119.81 90.823s-7.8549 4.3728-0.85027 7.2071"/>
   <path d="m141.6 97.767s5.4112 4.429-1.2245 7.4159c-6.6542 2.6653-16.297 0.96145-20.093 0.37889-2.2231-0.46593-10.76-3.7679-3.2796-8.5034"/>
  </g>
  <g>
   <ellipse cx="127.2" cy="92.272" rx="2.3138" ry="3.7023" fill="#fff"/>
   <ellipse cx="126.35" cy="92.272" rx="1.0351" ry="1.5752"/>
   <ellipse cx="125.89" cy="91.605" rx=".26712" ry=".26623" fill="#fff"/>
   <ellipse cx="131.58" cy="92.272" rx="2.3138" ry="3.7023" fill="#fff"/>
   <ellipse cx="130.73" cy="92.272" rx="1.0351" ry="1.5752"/>
   <ellipse cx="130.26" cy="91.605" rx=".26712" ry=".26623" fill="#fff"/>
   <ellipse cx="132.08" cy="99.508" rx=".96162" ry="1.0275" fill="#ff8080"/>
  </g>
  <ellipse cx="132.24" cy="100.06" rx="1.2025" ry="1.6606" fill-opacity="0" stroke="#5e271e" stroke-linecap="round" stroke-linejoin="round" stroke-miterlimit="35.9" stroke-width=".45808"/>
  <g fill="#5e271e">
   <circle cx="127.06" cy="81.002" r=".33739"/>
   <circle cx="127.69" cy="81.846" r=".49485"/>
   <circle cx="126.49" cy="81.861" r=".36602"/>
   <circle cx="121.58" cy="86.485" r=".19424"/>
   <circle cx="137" cy="85.472" r=".46622"/>
   <circle cx="137.89" cy="86.589" r=".49485"/>
   <circle cx="141.49" cy="100.74" r=".95294"/>
   <circle cx="141.52" cy="102.69" r=".38033"/>
   <circle cx="122.79" cy="104.38" r=".55211"/>
   <circle cx="119.01" cy="101.69" r=".49485"/>
   <circle cx="120.42" cy="101.94" r=".638"/>
   <circle cx="121.03" cy="87.229" r=".2515"/>
  </g>
  <g fill="#ccc">
   <path d="m130 77.27s0.56623-2.0488 1.8922-1.3022c1.326 0.74655 2.5181 0.29264 2.8363-0.5636 0.31826-0.85625 0.49434-1.2733 0.49434-1.2733s-0.34358 2.7755-0.92311 3.1426c-0.36013 0.22813-0.74205 0.26804-1.202 0.09917-0.5238-0.20206-1.1352-1.0686-2.0876-0.16752-0.95237 0.90105-1.5902 2.4676-1.5902 2.4676z"/>
   <path d="m131.7 78.61s0.38257-1.3843 1.2785-0.87985c0.89591 0.5044 1.7013 0.19772 1.9164-0.3808 0.21503-0.57852 0.33399-0.86029 0.33399-0.86029s-0.23214 1.8752-0.62368 2.1233c-0.24333 0.15412-0.50136 0.1811-0.81215 0.067-0.35391-0.13652-0.76703-0.72197-1.4105-0.1132-0.64343 0.60882-1.0744 1.6672-1.0744 1.6672z"/>
   <circle transform="rotate(-26.327)" cx="68.631" cy="127.69" r="1.5154" stroke="#483737" stroke-linecap="round" stroke-linejoin="round" stroke-miterlimit="35.9" stroke-width=".18369"/>
  </g>
  <g stroke="#483737" stroke-linecap="round" stroke-linejoin="round" stroke-miterlimit="35.9">
   <circle transform="rotate(-26.327)" cx="68.033" cy="127.21" r=".40182" fill="#686d9a" stroke-width=".18369"/>
   <path d="m117.74 84.675a0.6922 0.63887 63.673 0 0 0.84614 0.27845 0.6922 0.63887 63.673 0 0 0.29294 -0.8421z" fill="#fff" stroke-width=".18369"/>
   <circle transform="rotate(-26.327)" cx="69.281" cy="127.23" r=".40182" fill="#686d9a" stroke-width=".18369"/>
  </g>
  <g fill="none" stroke="#483737" stroke-width=".18369px">
   <path d="m118.43 82.509s-0.38567-1.5482 0.59329-2.1141c0.97895-0.56592 1.4625 0.13678 1.4609 0.51796-2e-3 0.3812-1.4672 1.8672-1.4672 1.8672"/>
   <path d="m116.74 83.319s-0.9802-0.88265-1.9835-0.56733c-1.0033 0.31532-1.2359 1.2365-0.60911 1.5513 0.62677 0.31482 2.4796 0.01385 2.4796 0.01385"/>
   <path d="m118.79 82.612s0.0229-1.1435 0.6304-1.4351" stroke-linecap="round"/>
   <path d="m116.6 83.812s-1.1011-0.6145-1.6726-0.26834" stroke-linecap="round"/>
  </g>
 </g>
</svg>
