<svg width="174.09" height="174.09" version="1.1" viewBox="0 0 46.060873 46.060873" xmlns="http://www.w3.org/2000/svg">
 <g transform="translate(-106.28 -71.075)">
  <circle cx="129.31" cy="94.106" r="23.03" fill="#f9f9f9"/>
  <g transform="matrix(.63267 0 0 .63267 47.867 33.626)">
   <g>
    <ellipse cx="128.07" cy="105.22" rx="10.55" ry="2.0505" opacity=".252"/>
    <ellipse cx="138.82" cy="87.906" rx="4.4901" ry="1.637" opacity=".252"/>
    <ellipse cx="124.06" cy="89.239" rx="7.0392" ry="1.6604" opacity=".252"/>
    <ellipse cx="105.38" cy="98.439" rx="7.2029" ry="1.5669" opacity=".252"/>
    <ellipse cx="152.23" cy="109.08" rx="7.8577" ry="2.4438" opacity=".252"/>
   </g>
   <g shape-rendering="auto">
    <path d="m138.43 79.778c-0.76729-0.1727-1.6184-0.18872-2.4082 0.17969s-1.4985 1.118-1.9941 2.3984c-0.4963 1.2821-0.48053 2.3747-0.13477 3.2598 0.34577 0.88511 1.011 1.553 1.7774 2.0273 0.76631 0.47439 1.6357 0.75957 2.418 0.88281 0.78226 0.12324 1.4714 0.09888 1.9316-0.11914 0.44196-0.20935 0.86927-0.64388 1.2539-1.2051 0.38464-0.5612 0.72051-1.2529 0.92969-1.9844 0.20917-0.7315 0.29289-1.5051 0.16016-2.2285-0.13258-0.72254-0.49029-1.3953-1.1445-1.8867 0 0-1.2545-0.97881-2.7891-1.3242z" color="#000000" color-rendering="auto" dominant-baseline="auto" fill="#30110b" image-rendering="auto" solid-color="#000000" style="font-feature-settings:normal;font-variant-alternates:normal;font-variant-caps:normal;font-variant-ligatures:normal;font-variant-numeric:normal;font-variant-position:normal;isolation:auto;mix-blend-mode:normal;shape-padding:0;text-decoration-color:#000000;text-decoration-line:none;text-decoration-style:solid;text-indent:0;text-orientation:mixed;text-transform:none;white-space:normal"/>
    <g fill="#915429">
     <path d="m126.96 97.114c0.97278-0.01401 2.2194 0.03543 3.416 0.28516 1.1966 0.24972 2.3377 0.70071 3.1191 1.4629 0.7814 0.76218 1.2268 1.8282 1.0352 3.416-0.0925 0.76633-0.44742 1.3805-1.0117 1.8848-0.5643 0.50426-1.3418 0.89062-2.2559 1.1641-1.8281 0.54689-4.1954 0.63465-6.4375 0.37891-2.2421-0.25574-4.3625-0.85654-5.6934-1.6426-0.66543-0.39301-1.126-0.83123-1.3223-1.2617-0.19628-0.43049-0.16794-0.85419 0.19336-1.3574 3.1163-4.3406 7.1465-4.2383 7.1465-4.2383h6e-3c0.10802 0 0.27893-0.01996 0.58985-0.04102s0.72845-0.04378 1.2148-0.05078z" color="#000000" color-rendering="auto" dominant-baseline="auto" image-rendering="auto" solid-color="#000000" style="font-feature-settings:normal;font-variant-alternates:normal;font-variant-caps:normal;font-variant-ligatures:normal;font-variant-numeric:normal;font-variant-position:normal;isolation:auto;mix-blend-mode:normal;shape-padding:0;text-decoration-color:#000000;text-decoration-line:none;text-decoration-style:solid;text-indent:0;text-orientation:mixed;text-transform:none;white-space:normal"/>
     <path d="m148.99 93.98c0.016 0.0036 1.9307 0.43301 3.748 1.9199 1.8249 1.4931 3.5358 4.0204 3.0898 8.3125-0.22226 2.1393-0.96677 3.5958-1.9609 4.5273-0.99416 0.93149-2.2469 1.3457-3.5234 1.3594-2.5531 0.0273-5.1543-1.5801-5.7422-3.7715-1.235-4.6033-0.34035-6.3296 0.34375-9.75 0.32422-1.6212 1.3076-2.236 2.2441-2.4902 0.93657-0.25421 1.8008-0.10742 1.8008-0.10742z" color="#000000" color-rendering="auto" dominant-baseline="auto" image-rendering="auto" solid-color="#000000" style="font-feature-settings:normal;font-variant-alternates:normal;font-variant-caps:normal;font-variant-ligatures:normal;font-variant-numeric:normal;font-variant-position:normal;isolation:auto;mix-blend-mode:normal;shape-padding:0;text-decoration-color:#000000;text-decoration-line:none;text-decoration-style:solid;text-indent:0;text-orientation:mixed;text-transform:none;white-space:normal"/>
     <path d="m138.33 80.215c1.4072 0.31674 2.6152 1.2402 2.6152 1.2402v2e-3h2e-3c0.56256 0.42172 0.85836 0.97969 0.97461 1.6133s0.0444 1.3422-0.15039 2.0234c-0.19481 0.68125-0.51124 1.3342-0.86719 1.8535-0.35595 0.51935-0.75926 0.90169-1.0781 1.0527-0.30057 0.14237-0.94107 0.19655-1.668 0.08203-0.7269-0.11452-1.5467-0.3837-2.252-0.82031-0.70529-0.43661-1.2952-1.0344-1.5976-1.8086-0.30244-0.7742-0.32803-1.7349 0.13672-2.9355 0.4654-1.2023 1.0938-1.84 1.7676-2.1543 0.67379-0.3143 1.4136-0.30681 2.1172-0.14844z" color="#000000" color-rendering="auto" dominant-baseline="auto" image-rendering="auto" solid-color="#000000" style="font-feature-settings:normal;font-variant-alternates:normal;font-variant-caps:normal;font-variant-ligatures:normal;font-variant-numeric:normal;font-variant-position:normal;isolation:auto;mix-blend-mode:normal;shape-padding:0;text-decoration-color:#000000;text-decoration-line:none;text-decoration-style:solid;text-indent:0;text-orientation:mixed;text-transform:none;white-space:normal"/>
     <path d="m120.31 82.01c1.4958-0.18455 2.8634 0.10507 2.8652 0.10547h2e-3c3e-3 7e-4 3.1743 0.72711 5.2754 2.3613 1.0004 0.77809 1.104 1.9154 0.56836 2.9961s-1.7394 2.0652-3.3555 2.373c-1.6083 0.30635-4.1719-0.0646-6.1484-0.99414-0.98825-0.46477-1.8297-1.0666-2.3457-1.7676-0.51599-0.70095-0.71898-1.4855-0.45703-2.4023 0.26592-0.9307 0.78556-1.541 1.4297-1.9551 0.64414-0.41409 1.4176-0.62446 2.166-0.7168z" color="#000000" color-rendering="auto" dominant-baseline="auto" image-rendering="auto" solid-color="#000000" style="font-feature-settings:normal;font-variant-alternates:normal;font-variant-caps:normal;font-variant-ligatures:normal;font-variant-numeric:normal;font-variant-position:normal;isolation:auto;mix-blend-mode:normal;shape-padding:0;text-decoration-color:#000000;text-decoration-line:none;text-decoration-style:solid;text-indent:0;text-orientation:mixed;text-transform:none;white-space:normal"/>
     <path d="m104.37 83.074c1.0953-0.13358 1.9452 0.24134 2.6484 0.89844 0.70321 0.6571 1.2426 1.6042 1.6406 2.5781 0.79614 1.9478 1.0274 3.9785 1.0274 3.9785l-2e-3 -2e-3s0.10592 0.97744-0.36523 2.3496c-0.47116 1.3722-1.5143 3.1205-3.8516 4.623-1.1627 0.74746-2.081 0.99169-2.8223 0.90429s-1.3365-0.50366-1.8652-1.168c-1.0575-1.3286-1.773-3.6378-2.5684-5.8535-0.76961-2.1439-0.36135-4.0591 0.79882-5.5332 1.1602-1.4741 3.0883-2.4984 5.3594-2.7754z" color="#000000" color-rendering="auto" dominant-baseline="auto" image-rendering="auto" solid-color="#000000" style="font-feature-settings:normal;font-variant-alternates:normal;font-variant-caps:normal;font-variant-ligatures:normal;font-variant-numeric:normal;font-variant-position:normal;isolation:auto;mix-blend-mode:normal;shape-padding:0;text-decoration-color:#000000;text-decoration-line:none;text-decoration-style:solid;text-indent:0;text-orientation:mixed;text-transform:none;white-space:normal"/>
    </g>
   </g>
   <g fill="#30110b">
    <circle cx="137.83" cy="81.232" r=".42995"/>
    <circle cx="136.51" cy="81.414" r=".42995"/>
    <circle cx="137.27" cy="82.357" r=".57878"/>
   </g>
   <path d="m142.21 83.439s-0.72497 3.999-3.6716 3.8353c-2.9466-0.1637-4.1627-1.2395-4.1627-1.2395l1.333 1.2862 1.2862 0.63142 1.8475 0.42095 1.3564-0.21047 1.2395-1.5903 0.72497-1.7306z" fill="#663417"/>
   <g fill="#30110b">
    <path d="m137.54 79.661c-0.5061-0.01447-1.0236 0.06585-1.5172 0.29611-0.78977 0.36841-1.4986 1.1179-1.9942 2.3983-0.4963 1.2821-0.48063 2.3746-0.13487 3.2598 0.34576 0.88511 1.0114 1.5529 1.7777 2.0273 0.76631 0.47438 1.6357 0.75991 2.4179 0.88315 0.78225 0.12324 1.4714 0.09865 1.9317-0.11937 0.44196-0.20935 0.86904-0.64389 1.2537-1.2051 0.38464-0.5612 0.72048-1.2529 0.92966-1.9844 0.20917-0.73151 0.29293-1.5049 0.1602-2.2283-0.13258-0.72254-0.49039-1.3953-1.1446-1.8867 0 0-1.2544-0.97906-2.789-1.3245-0.28774-0.06476-0.58725-0.10758-0.8909-0.11627zm-0.0104 0.44855c0.26864 0.0079 0.53765 0.04603 0.8015 0.10542 1.4072 0.31674 2.6154 1.2402 2.6154 1.2402v0.0021h2e-3c0.56256 0.42172 0.85837 0.97923 0.97462 1.6128 0.11625 0.63359 0.0444 1.3424-0.15038 2.0236-0.19481 0.68126-0.51118 1.3343-0.86713 1.8536-0.35595 0.51935-0.75962 0.90161-1.0785 1.0526-0.30058 0.14238-0.9407 0.19669-1.6676 0.08217-0.7269-0.11452-1.5468-0.38401-2.2521-0.82062-0.70529-0.43661-1.2954-1.0345-1.5978-1.8087-0.30244-0.7742-0.32781-1.7346 0.13695-2.9352 0.4654-1.2023 1.0936-1.8401 1.7673-2.1544 0.42112-0.19644 0.86795-0.26697 1.3157-0.25373z" color="#000000" color-rendering="auto" dominant-baseline="auto" image-rendering="auto" shape-rendering="auto" solid-color="#000000" style="font-feature-settings:normal;font-variant-alternates:normal;font-variant-caps:normal;font-variant-ligatures:normal;font-variant-numeric:normal;font-variant-position:normal;isolation:auto;mix-blend-mode:normal;shape-padding:0;text-decoration-color:#000000;text-decoration-line:none;text-decoration-style:solid;text-indent:0;text-orientation:mixed;text-transform:none;white-space:normal"/>
    <circle cx="141.06" cy="85.607" r=".3683"/>
    <circle cx="140.68" cy="86.332" r=".22798"/>
   </g>
   <path d="m129.46 85.988s-0.30402 1.4733-1.9644 2.0814c-1.6604 0.60804-3.6482 1.1459-5.2151 0.95883-1.5669-0.18709-4.2329-0.8419-4.2329-0.8419l1.941 1.1225 2.4555 0.60804 2.8297 0.18709 2.3386-0.70158 1.4967-1.3798z" fill="#663417"/>
   <g fill="#30110b">
    <circle cx="120.95" cy="84.906" r=".92957"/>
    <circle cx="123.59" cy="83.713" r=".22798"/>
    <circle cx="125.46" cy="84.532" r=".43846"/>
    <circle cx="120.88" cy="87.338" r=".39169"/>
    <circle cx="118.21" cy="85.865" r=".22798"/>
    <circle cx="119.75" cy="83.386" r=".48523"/>
    <circle cx="125.04" cy="88.881" r=".22798"/>
    <circle cx="125.04" cy="88.881" r=".39169"/>
    <path d="m121.39 81.5c-0.35711-0.0014-0.74456 0.01571-1.141 0.0646-0.79313 0.0979-1.6332 0.3212-2.3554 0.78548-0.72236 0.46437-1.3223 1.1772-1.617 2.2087-0.29866 1.0453-0.0531 2.0029 0.5271 2.791 0.5802 0.78818 1.4816 1.4221 2.5156 1.9084 2.0679 0.97253 4.6686 1.3617 6.4239 1.0273 1.7477-0.33288 3.0686-1.3915 3.6742-2.6133 0.60559-1.2218 0.46641-2.6449-0.69556-3.5486-2.2226-1.7287-5.4529-2.4453-5.4529-2.4453h-2e-3s-0.80508-0.17395-1.8769-0.17828zm-8e-3 0.44855c1.0158 0.0036 1.7856 0.16662 1.787 0.16692h2e-3c3e-3 7.01e-4 3.174 0.7274 5.2751 2.3616 1.0004 0.77809 1.1041 1.915 0.56844 2.9957-0.53566 1.0807-1.7393 2.0657-3.3554 2.3735-1.6083 0.30635-4.172-0.06471-6.1485-0.99425-0.98825-0.46477-1.8296-1.0669-2.3456-1.7678-0.516-0.70095-0.7193-1.4856-0.45734-2.4024 0.26591-0.9307 0.78575-1.5408 1.4299-1.9549 0.64413-0.41409 1.4173-0.62442 2.1658-0.71675 0.37395-0.04613 0.7399-0.0627 1.0785-0.06149z" color="#000000" color-rendering="auto" dominant-baseline="auto" image-rendering="auto" shape-rendering="auto" solid-color="#000000" style="font-feature-settings:normal;font-variant-alternates:normal;font-variant-caps:normal;font-variant-ligatures:normal;font-variant-numeric:normal;font-variant-position:normal;isolation:auto;mix-blend-mode:normal;shape-padding:0;text-decoration-color:#000000;text-decoration-line:none;text-decoration-style:solid;text-indent:0;text-orientation:mixed;text-transform:none;white-space:normal"/>
   </g>
   <path d="m155.88 100.49s-0.38386 4.2823-2.091 5.5451c-1.7072 1.2628-3.398 1.9611-4.123 1.5869s-3.5847 0.18778-4.1694-0.20978c-0.58466-0.39757-1.1225-0.77174-1.1225-0.77174l1.2628 1.9176 1.9878 1.2395 2.9934 0.51449 3.1104-0.95883 1.5902-2.1515 0.93545-3.4144z" fill="#663417"/>
   <g fill="#30110b">
    <circle cx="150.08" cy="96.911" r="1.128"/>
    <circle cx="147.37" cy="96.977" r=".46655"/>
    <circle cx="146.18" cy="100.02" r=".46655"/>
    <circle cx="146.01" cy="104.42" r=".46655"/>
    <circle cx="146.01" cy="104.42" r=".96264"/>
    <circle cx="147.8" cy="104.85" r=".36733"/>
    <path d="m148.46 93.49c-0.36785-0.0057-0.86683 0.024-1.3896 0.16588-1.0455 0.28378-2.2109 1.0573-2.5662 2.8339-0.67508 3.3753-1.5947 5.2709-0.33797 9.955 0.65796 2.4523 3.4382 4.1309 6.18 4.1016 1.3709-0.0147 2.7426-0.46535 3.8261-1.4805s1.8688-2.5873 2.0996-4.8085c0.46014-4.429-1.3393-7.14-3.252-8.7049-1.9127-1.5649-3.9434-2.0138-3.9434-2.0138h-6e-3l-6e-3 -0.0021s-0.23677-0.04082-0.60462-0.04651zm-0.0207 0.44855c0.33313 0.0049 0.54932 0.04134 0.54932 0.04134 0.016 0.0036 1.9308 0.43339 3.7481 1.9203 1.8249 1.4931 3.5357 4.02 3.0897 8.3122-0.22226 2.1393-0.96696 3.5959-1.9611 4.5274-0.99416 0.93149-2.2467 1.346-3.5233 1.3596-2.5531 0.0273-5.1544-1.5805-5.7423-3.7719-1.2351-4.6033-0.33994-6.3294 0.34416-9.7498 0.32422-1.6212 1.3072-2.2361 2.2438-2.4903 0.46828-0.12711 0.91848-0.15375 1.2516-0.14883z" color="#000000" color-rendering="auto" dominant-baseline="auto" image-rendering="auto" shape-rendering="auto" solid-color="#000000" style="font-feature-settings:normal;font-variant-alternates:normal;font-variant-caps:normal;font-variant-ligatures:normal;font-variant-numeric:normal;font-variant-position:normal;isolation:auto;mix-blend-mode:normal;shape-padding:0;text-decoration-color:#000000;text-decoration-line:none;text-decoration-style:solid;text-indent:0;text-orientation:mixed;text-transform:none;white-space:normal"/>
   </g>
   <path d="m109.68 89.903s-0.63142 2.97-2.3152 4.2329c-1.6838 1.2628-3.0636 3.1337-4.2329 2.8999-1.1693-0.23387-2.1281-0.21048-2.5725-0.56127-0.44434-0.35079-0.98222-0.70158-0.98222-0.70158l1.0524 1.7306 1.5435 1.029 2.1048-0.11693 3.3208-2.1047 1.6838-2.5257 0.65481-2.4555z" fill="#663417"/>
   <g fill="#30110b">
    <circle cx="105.15" cy="85.155" r=".49492"/>
    <circle cx="103.35" cy="85.319" r=".96264"/>
    <circle cx="101.27" cy="91.774" r=".96264"/>
    <circle cx="104.64" cy="86.301" r=".44815"/>
    <circle cx="102.09" cy="96.802" r=".42476"/>
    <circle cx="103.26" cy="96.848" r=".5183"/>
    <path d="m104.77 82.6c-0.14645 7.94e-4 -0.29627 0.01024-0.44959 0.02894-2.3726 0.28934-4.4094 1.3596-5.656 2.9435-1.2466 1.5839-1.6873 3.6897-0.87126 5.963 0.79028 2.2015 1.4895 4.5342 2.6407 5.9805 0.57558 0.72315 1.2844 1.23 2.1642 1.3338s1.9014-0.19099 3.1171-0.97255c2.4197-1.5555 3.5353-3.3984 4.0349-4.8534 0.49962-1.4551 0.38706-2.543 0.38706-2.543s-0.23089-2.0789-1.0568-4.0995c-0.41296-1.0103-0.97404-2.0114-1.7498-2.7363-0.67877-0.63426-1.5354-1.0509-2.5606-1.0449zm5e-3 0.44752c0.90608-0.0087 1.6336 0.35056 2.249 0.92552 0.70321 0.6571 1.2427 1.6037 1.6407 2.5776 0.79614 1.9478 1.0273 3.9786 1.0273 3.9786l-2e-3 -2e-3s0.1058 0.97704-0.36535 2.3492c-0.47116 1.3722-1.5142 3.1204-3.8515 4.623-1.1627 0.74746-2.0808 0.99174-2.822 0.90434s-1.3368-0.50358-1.8655-1.1679c-1.0575-1.3286-1.773-3.6377-2.5683-5.8534-0.76961-2.1439-0.36125-4.0589 0.79892-5.533 1.1602-1.4741 3.0883-2.4986 5.3594-2.7755 0.13692-0.0167 0.27002-0.02561 0.39946-0.02687z" color="#000000" color-rendering="auto" dominant-baseline="auto" image-rendering="auto" shape-rendering="auto" solid-color="#000000" style="font-feature-settings:normal;font-variant-alternates:normal;font-variant-caps:normal;font-variant-ligatures:normal;font-variant-numeric:normal;font-variant-position:normal;isolation:auto;mix-blend-mode:normal;shape-padding:0;text-decoration-color:#000000;text-decoration-line:none;text-decoration-style:solid;text-indent:0;text-orientation:mixed;text-transform:none;white-space:normal"/>
   </g>
   <path d="m134.58 100.34s0.0468 1.0758-0.21048 1.4967c-0.25725 0.42095-0.74835 1.7773-1.5902 2.1515s-3.2507 1.3798-5.9167 1.2628-6.6416-0.42095-6.6416-0.42095l2.058 0.74835 3.5313 0.53788 4.9812-0.3274 3.1337-1.5435 0.77174-1.7306 0.0702-1.4733z" fill="#663417"/>
   <g fill="#30110b">
    <circle cx="127.89" cy="98.74" r=".81264"/>
    <circle cx="126.28" cy="98.552" r=".48523"/>
    <circle cx="126.6" cy="99.581" r=".29814"/>
    <circle cx="123" cy="102.43" r=".48523"/>
    <circle cx="131.87" cy="104.19" r=".48523"/>
    <circle cx="132.94" cy="103.18" r=".81264"/>
    <path d="m126.95 96.664c-0.49668 0.0072-0.92402 0.0313-1.2402 0.05271-0.31622 0.02143-0.55339 0.03928-0.55863 0.03928-6e-3 -9.8e-5 -4.2919-0.06493-7.5158 4.4256-0.43152 0.60105-0.49411 1.2438-0.23822 1.805 0.25588 0.56121 0.79084 1.0407 1.5022 1.4609 1.4228 0.84031 3.5826 1.4422 5.871 1.7032 2.2884 0.26101 4.7006 0.17853 6.6172-0.39481 0.95828-0.28667 1.7946-0.69589 2.4257-1.2599 0.63113-0.56398 1.0524-1.2898 1.1581-2.1658 0.20479-1.6968-0.29462-2.9376-1.1679-3.7894-0.87327-0.85179-2.0942-1.3219-3.3398-1.5818-1.2456-0.25995-2.5201-0.30938-3.5135-0.29507zm6e-3 0.44958c0.97278-0.01402 2.2197 0.03501 3.4163 0.28474 1.1966 0.24972 2.3378 0.70078 3.1192 1.463 0.7814 0.76218 1.2267 1.8285 1.0351 3.4163-0.0925 0.76633-0.44752 1.3804-1.0118 1.8846-0.5643 0.50425-1.3416 0.89082-2.2557 1.1643-1.8281 0.54689-4.1958 0.63453-6.4378 0.37879-2.2421-0.25574-4.3623-0.85676-5.6932-1.6428-0.66543-0.39301-1.1261-0.83093-1.3224-1.2614-0.19627-0.43048-0.16803-0.8543 0.19327-1.3575 3.1163-4.3406 7.1468-4.2385 7.1468-4.2385h6e-3c0.10802 0 0.27871-0.01977 0.58963-0.04082 0.31092-0.02106 0.72852-0.04364 1.2149-0.05064z" color="#000000" color-rendering="auto" dominant-baseline="auto" image-rendering="auto" shape-rendering="auto" solid-color="#000000" style="font-feature-settings:normal;font-variant-alternates:normal;font-variant-caps:normal;font-variant-ligatures:normal;font-variant-numeric:normal;font-variant-position:normal;isolation:auto;mix-blend-mode:normal;shape-padding:0;text-decoration-color:#000000;text-decoration-line:none;text-decoration-style:solid;text-indent:0;text-orientation:mixed;text-transform:none;white-space:normal"/>
   </g>
  </g>
 </g>
</svg>
