<svg width="174.09" height="174.09" version="1.1" viewBox="0 0 46.060873 46.060873" xmlns="http://www.w3.org/2000/svg">
 <g transform="translate(-105.82 -70.093)">
  <circle cx="128.85" cy="93.123" r="23.03" fill="#f9f9f9"/>
  <g transform="matrix(.93623 0 0 .93623 59.483 8.5902)" stroke-width="1.0681">
   <g>
    <ellipse cx="69.799" cy="84.553" rx="4.8286" ry="1.6702" opacity=".06"/>
    <ellipse cx="58.174" cy="92.143" rx="5.5397" ry="1.3891" opacity=".06"/>
    <ellipse cx="70.328" cy="96.773" rx="5.0932" ry="1.3891" opacity=".06"/>
    <ellipse cx="85.095" cy="100.31" rx="6.1681" ry="1.3229" opacity=".06"/>
    <ellipse cx="86.947" cy="90.853" rx="9.1447" ry="1.819" opacity=".06"/>
   </g>
   <path d="m93.748 88.336s1.0875-2.7479-1.6253-3.4494c-2.7128-0.70158-2.5065-0.90288-3.0519-1.8475-0.54538-0.94462-2.2918-3.087-3.3676-2.1047-1.0758 0.98222-3.6015 1.2628-4.9578 1.3564-1.3564 0.09354-3.6482 1.8709-3.5547 3.5079 0.09355 1.637 0.70158 0.88867 0.74836 1.8709 0.04677 0.98222-0.28063 2.6192 1.1693 2.9466 1.4499 0.3274 3.3208-0.93544 4.6772-0.56127 1.3564 0.37418 3.2741 1.7773 5.4256 1.5435s2.1047-1.1225 3.0402-1.4032 1.4967-1.8592 1.4967-1.8592z" fill="#915926"/>
   <path d="m88.486 84.068s-1.2862-2.3386-1.9878-2.0346c-0.70158 0.30402-2.5725 1.1927-2.7596 1.1225-0.18709-0.07016-2.3854-0.23386-2.97 0.14032-0.58465 0.37418-2.5257 1.2161-2.3386 2.0814 0.18709 0.86528 1.0758 1.8007 0.70158 2.4322-0.37418 0.63142-0.23386 1.5669 0.09354 1.754 0.3274 0.18709 2.7362-0.6782 3.8353-0.46772s4.3498 0.91206 5.5659 1.8709c1.2161 0.95883 1.941-1.4032 2.8297-1.4967 0.88867-0.09354 2.3152-2.1749 1.4032-2.9934-0.91206-0.81851-3.5313-0.8419-3.8587-1.4266-0.3274-0.58465-0.51449-0.98222-0.51449-0.98222z" fill="#74431f"/>
   <g fill="#30110b">
    <circle cx="85.912" cy="83.925" r=".26824"/>
    <circle cx="83.69" cy="84.089" r=".52548"/>
    <circle cx="87.502" cy="85.387" r=".27993"/>
    <circle cx="81.878" cy="86.556" r=".87627"/>
    <circle cx="80.44" cy="87.246" r=".42024"/>
    <circle cx="91.104" cy="88.532" r=".17469"/>
    <circle cx="90.461" cy="88.93" r=".3267"/>
   </g>
   <path d="m74.127 90.85s-2.0112-0.18709-2.5725-1.0056-1.754-0.74836-2.4789-0.37418c-0.72497 0.37418-1.8241 0.37418-2.2684 0.07016-0.44434-0.30402-2.1983 0.49111-1.7773 1.3564 0.42095 0.86529 1.029 1.2628 0.58465 2.2217-0.44434 0.95883-0.1637 2.0346 0.74836 2.4555 0.91206 0.42095 1.9644 0.58465 2.1047 1.0991 0.14032 0.51449 1.5669 1.5903 2.6894 1.1225 1.1225-0.46772 1.6604-2.058 2.4789-2.6894 0.81852-0.63142 0.02339-2.1281 0.42095-2.5959 0.39756-0.46772 1.0524-1.5669 0.07016-1.6604z" fill="#915926"/>
   <path d="m73.734 91.382s-1.9844-0.14883-2.5301-0.71107c-0.5457-0.56224-1.9348-0.77721-2.2655-0.39688-0.33073 0.38034-1.5048 0.38034-1.7694 0.24805-0.26458-0.13229-1.5214-0.79375-1.3725 0.28112 0.14883 1.0749 1.2898 1.8025 0.76068 2.2324s-0.92604 1.6867 0.01654 2.0836c0.94258 0.39688 1.9513 0.13229 2.282 0.76068 0.33073 0.62839 0.61185 1.6206 1.3725 1.571 0.76068-0.04961 1.8355-1.0914 2.0009-1.3725 0.16536-0.28112 0.28112-0.94258 0.82682-1.2898s0.46302-1.4883 0.33073-1.7694c-0.13229-0.28112 1.0914-1.6702 0.34727-1.6371z" fill="#74431f"/>
   <g fill="#30110b">
    <circle cx="71.541" cy="91.584" r=".31501"/>
    <circle cx="71.576" cy="95.63" r=".18638"/>
    <circle cx="70.957" cy="95.899" r=".31501"/>
    <circle cx="68.408" cy="91.724" r=".27993"/>
    <circle cx="66.817" cy="91.268" r=".22146"/>
   </g>
   <path d="m72.813 83.312s1.0564-1.5352-0.25324-2.0029c-1.3096-0.46772-2.5257-0.93544-2.058-1.8709 0.46772-0.93544-2.4789-0.28063-3.274-0.09354-0.79513 0.18709-2.7596 1.5903-2.3854 2.0112 0.37418 0.42095 0.8419 1.6604 0.5145 2.5257s0.32741 1.5435 1.333 1.5903c1.0056 0.04677 2.6894-1.9644 4.303-1.4733 0.76277 0.23703 1.3881-0.02115 1.8201-0.68647z" fill="#915926"/>
   <path d="m72.548 81.8s-2.7128-1.029-2.5491-1.6721c0.1637-0.64312 0.07016-0.92375-0.24555-0.8419-0.31571 0.08185-1.8124 0.19878-2.362 0.52619-0.54957 0.3274-2.2217 1.0173-1.9644 1.4149 0.25725 0.39756 0.60804 1.2979 0.49111 1.8241s-0.36248 1.3915-0.04677 1.6019c0.31571 0.21048 0.5145 0.76005 1.8124 0.03508s2.3503-1.4149 3.5664-1.1342c1.2161 0.28063 2.1983-1.4733 1.2979-1.754z" fill="#74431f"/>
   <g fill="#30110b">
    <circle cx="71.681" cy="82.356" r=".24485"/>
    <circle cx="71.096" cy="81.924" r=".25654"/>
    <circle cx="66.945" cy="80.883" r=".25654"/>
    <circle cx="66.536" cy="82.824" r=".31501"/>
    <circle cx="67.237" cy="83.455" r=".57225"/>
    <circle cx="70.967" cy="82.625" r=".31501"/>
   </g>
   <path d="m58.428 83.685s-1.7587-1.0011-3.0846-0.10823c-1.3258 0.8929-0.54115 1.7587-1.5152 2.7869-0.97408 1.0282-1.867 0.75762-1.7317 1.6505 0.13529 0.8929 0.40586 5.4115 1.9482 4.4104 1.5423-1.0011 5.2221-1.0282 5.8174-0.40586 0.59527 0.62233 3.7881-3.0034 2.7328-3.6528-1.0552-0.64938-1.3799-1.4882-0.8929-2.0023 0.48704-0.51409-0.21646-2.1646-1.0282-2.2187-0.81173-0.05411-2.2458-0.45998-2.2458-0.45998z" fill="#915926"/>
   <path d="m53.923 86.864s-0.66291 0.56821-0.96055 1.1635c-0.29763 0.59527 0.25705 3.6798 0.5141 3.7745 0.25705 0.0947 1.9211-1.2852 3.2875-1.0552 1.3664 0.22999 2.0321 0.41639 3.2334 0.64938 0.68945 0.0034 2.6516-2.1917 2.1646-2.7328-0.48704-0.54115-1.9887-1.5964-1.0282-2.4893 0.96055-0.8929-1.2988-1.8534-1.9482-1.7723-0.64938 0.08118-2.1511-0.9876-2.8952-0.59527-0.74409 0.39234-0.66292 1.407-1.1229 1.867-0.45998 0.45998-1.2447 1.1905-1.2447 1.1905z" fill="#74431f"/>
   <g fill="#30110b">
    <circle cx="59.927" cy="85.709" r=".29682"/>
    <circle cx="59.196" cy="85.479" r=".20212"/>
    <circle cx="59.318" cy="86.372" r=".43211"/>
    <circle cx="56.639" cy="85.087" r=".54034"/>
    <circle cx="54.515" cy="89.984" r=".5674"/>
    <circle cx="59.913" cy="90.66" r=".29682"/>
    <circle cx="57.559" cy="88.198" r=".29682"/>
    <circle cx="58.27" cy="88.579" r=".48622"/>
    <circle cx="54.042" cy="89.159" r=".2427"/>
   </g>
   <path d="m88.187 94.566s-1.3891-1.2981-2.9766-0.47129-1.5544-1.0253-3.2742-0.39688c-1.7198 0.62838-3.5057-1.6206-3.9688-0.29766-0.46302 1.3229 2.5466 2.2159 1.6867 3.638s-2.5466 3.2411-1.1576 3.5719c1.3891 0.33073 3.5388-1.819 4.6302-0.99219 1.0914 0.82683 4.7294 0.69453 4.7294-0.42995 0-1.1245 1.1245-2.712 2.1497-2.7781 1.0253-0.06615-1.1824-1.2816-1.819-1.8438z" fill="#915926"/>
   <path d="m88.7 95.897s-1.6702-1.8686-2.8277-1.2898-2.7616 0.38034-3.1419-0.04961c-0.38034-0.42995-1.9348 0.31419-2.8939-0.31419-0.95912-0.62839-1.3725-0.39688-0.01654 1.0418 1.356 1.4387 0.41341 2.5301 0.04961 2.8443s-2.9435 2.7285 0.99219 1.4387c3.9357-1.2898 1.9348 0.26458 4.1341 0.14883s2.1497-0.31419 2.6789-1.9182c0.52917-1.604 1.6206-1.3353 1.0253-1.9017z" fill="#74431f"/>
   <g fill="#30110b">
    <circle cx="87.544" cy="96.316" r=".19808"/>
    <circle cx="87.43" cy="95.609" r=".3267"/>
    <circle cx="81.828" cy="96.288" r=".18638"/>
    <circle cx="81.735" cy="98.793" r=".17469"/>
    <circle cx="81.267" cy="98.828" r=".1513"/>
    <circle cx="86.471" cy="98.804" r=".3267"/>
    <circle cx="86.611" cy="96.232" r=".45532"/>
    <circle cx="82.739" cy="96.04" r=".65411"/>
   </g>
  </g>
 </g>
</svg>
