<svg width="174.09" height="174.09" version="1.1" viewBox="0 0 46.060873 46.060873" xmlns="http://www.w3.org/2000/svg">
 <g transform="translate(-105.82 -70.093)">
  <circle cx="128.85" cy="93.123" r="23.03" fill="#f9f9f9"/>
  <g transform="matrix(.86674 0 0 .86674 56.16 14.594)" stroke-width="1.1537">
   <ellipse cx="85.073" cy="97.375" rx="21.663" ry="2.1629" opacity=".12"/>
   <g stroke-width=".91547">
    <g transform="matrix(1.2603 0 0 1.2603 -18.743 -16.227)">
     <path d="m91.789 80.13c-0.48544-0.10926-1.0239-0.1194-1.5236 0.11368-0.49967 0.23308-0.94806 0.70734-1.2616 1.5174-0.31399 0.81115-0.30402 1.5024-0.08526 2.0623 0.21876 0.55998 0.63965 0.98251 1.1245 1.2826 0.48482 0.30013 1.0349 0.48056 1.5298 0.55853 0.49491 0.07797 0.93089 0.06256 1.2221-0.07538 0.27961-0.13245 0.54996-0.40736 0.7933-0.76241 0.24335-0.35506 0.45584-0.79265 0.58818-1.2554 0.13234-0.4628 0.1853-0.95223 0.10133-1.4099-0.08388-0.45713-0.31019-0.88275-0.72411-1.1937 0 0-0.79367-0.61926-1.7645-0.83779z" color="#000000" color-rendering="auto" dominant-baseline="auto" fill="#30110b" image-rendering="auto" shape-rendering="auto" solid-color="#000000" style="font-feature-settings:normal;font-variant-alternates:normal;font-variant-caps:normal;font-variant-ligatures:normal;font-variant-numeric:normal;font-variant-position:normal;isolation:auto;mix-blend-mode:normal;shape-padding:0;text-decoration-color:#000000;text-decoration-line:none;text-decoration-style:solid;text-indent:0;text-orientation:mixed;text-transform:none;white-space:normal"/>
     <path d="m91.726 80.407c0.89031 0.20039 1.6546 0.78466 1.6546 0.78466v0.0013h0.0013c0.35591 0.26681 0.54306 0.61982 0.6166 1.0207 0.07355 0.40085 0.02809 0.84916-0.09515 1.2802-0.12325 0.43101-0.32344 0.84408-0.54864 1.1727-0.2252 0.32858-0.48036 0.57047-0.68209 0.66603-0.19016 0.09007-0.59538 0.12435-1.0553 0.0519-0.45989-0.07245-0.97852-0.24276-1.4247-0.51899-0.44621-0.27623-0.81944-0.65442-1.0108-1.1442-0.19134-0.48982-0.20753-1.0976 0.0865-1.8572 0.29444-0.76067 0.69201-1.1641 1.1183-1.363 0.42628-0.19885 0.89433-0.19411 1.3395-0.09391z" color="#000000" color-rendering="auto" dominant-baseline="auto" fill="#915429" image-rendering="auto" shape-rendering="auto" solid-color="#000000" style="font-feature-settings:normal;font-variant-alternates:normal;font-variant-caps:normal;font-variant-ligatures:normal;font-variant-numeric:normal;font-variant-position:normal;isolation:auto;mix-blend-mode:normal;shape-padding:0;text-decoration-color:#000000;text-decoration-line:none;text-decoration-style:solid;text-indent:0;text-orientation:mixed;text-transform:none;white-space:normal"/>
     <g fill="#30110b">
      <circle cx="91.412" cy="81.051" r=".27201"/>
      <circle cx="90.575" cy="81.166" r=".27201"/>
      <circle cx="91.057" cy="81.762" r=".36617"/>
     </g>
     <path d="m94.181 82.447s-0.45866 2.5301-2.3229 2.4265c-1.8643-0.10357-2.6336-0.78417-2.6336-0.78417l0.84335 0.81376 0.81376 0.39948 1.1689 0.26632 0.85814-0.13316 0.78417-1.0061 0.45866-1.0949z" fill="#663417"/>
     <g fill="#30110b">
      <path d="m91.226 80.057c-0.32019-0.0092-0.6476 0.04166-0.9599 0.18734-0.49966 0.23308-0.94809 0.70726-1.2617 1.5173-0.31399 0.81115-0.30408 1.5024-0.08533 2.0623 0.21875 0.55998 0.63985 0.98246 1.1247 1.2826 0.48482 0.30013 1.0348 0.48077 1.5298 0.55874 0.4949 0.07797 0.9309 0.06241 1.2221-0.07552 0.27961-0.13245 0.54981-0.40737 0.79316-0.76242 0.24335-0.35506 0.45582-0.79265 0.58817-1.2554 0.13234-0.4628 0.18533-0.95208 0.10135-1.4098-0.08388-0.45713-0.31025-0.88274-0.72418-1.1937 0 0-0.79361-0.61942-1.7645-0.83795-0.18204-0.040975-0.37153-0.068069-0.56364-0.073565zm-0.0066 0.28378c0.16996 5e-3 0.34015 0.02912 0.50708 0.0667 0.89031 0.20039 1.6546 0.78466 1.6546 0.78466v0.0013h0.0013c0.35591 0.26681 0.54306 0.61953 0.61661 1.0204 0.07355 0.40085 0.02809 0.84929-0.09514 1.2803-0.12325 0.43101-0.32341 0.84416-0.5486 1.1727-0.2252 0.32858-0.48059 0.57042-0.68232 0.66598-0.19017 0.09008-0.59515 0.12444-1.055 0.05199-0.45989-0.07245-0.97858-0.24295-1.4248-0.51918-0.44621-0.27623-0.81956-0.65448-1.0109-1.1443s-0.2074-1.0974 0.08664-1.857c0.29444-0.76066 0.69185-1.1642 1.1181-1.363 0.26643-0.12428 0.54912-0.1689 0.83239-0.16053z" color="#000000" color-rendering="auto" dominant-baseline="auto" image-rendering="auto" shape-rendering="auto" solid-color="#000000" style="font-feature-settings:normal;font-variant-alternates:normal;font-variant-caps:normal;font-variant-ligatures:normal;font-variant-numeric:normal;font-variant-position:normal;isolation:auto;mix-blend-mode:normal;shape-padding:0;text-decoration-color:#000000;text-decoration-line:none;text-decoration-style:solid;text-indent:0;text-orientation:mixed;text-transform:none;white-space:normal"/>
      <circle cx="93.453" cy="83.819" r=".23301"/>
      <circle cx="93.217" cy="84.277" r=".14424"/>
     </g>
    </g>
    <g transform="matrix(1.2603 0 0 1.2603 -15.815 -19.27)">
     <path d="m80.326 81.543c0.94634-0.11676 1.8116 0.06648 1.8127 0.06673h0.0013c0.0019 4.43e-4 2.0083 0.46002 3.3376 1.4939 0.63292 0.49227 0.69848 1.2118 0.35958 1.8955-0.3389 0.68374-1.1005 1.3066-2.1229 1.5014-1.0175 0.19382-2.6395-0.04087-3.8899-0.62896-0.62523-0.29405-1.1576-0.67482-1.4841-1.1183-0.32645-0.44347-0.45488-0.93982-0.28915-1.5199 0.16824-0.58883 0.497-0.97494 0.90452-1.2369 0.40753-0.26198 0.89688-0.39508 1.3704-0.45349z" color="#000000" color-rendering="auto" dominant-baseline="auto" fill="#915429" image-rendering="auto" shape-rendering="auto" solid-color="#000000" style="font-feature-settings:normal;font-variant-alternates:normal;font-variant-caps:normal;font-variant-ligatures:normal;font-variant-numeric:normal;font-variant-position:normal;isolation:auto;mix-blend-mode:normal;shape-padding:0;text-decoration-color:#000000;text-decoration-line:none;text-decoration-style:solid;text-indent:0;text-orientation:mixed;text-transform:none;white-space:normal"/>
     <path d="m86.118 84.06s-0.19234 0.93213-1.2428 1.3168c-1.0505 0.38469-2.3081 0.72498-3.2994 0.60662-0.99131-0.11836-2.678-0.53264-2.678-0.53264l1.228 0.71019 1.5535 0.38468 1.7903 0.11836 1.4796-0.44387 0.94692-0.87294z" fill="#663417"/>
     <g fill="#30110b">
      <circle cx="80.729" cy="83.375" r=".58811"/>
      <circle cx="82.401" cy="82.62" r=".14424"/>
      <circle cx="83.585" cy="83.138" r=".2774"/>
      <circle cx="80.685" cy="84.914" r=".24781"/>
      <circle cx="78.998" cy="83.981" r=".14424"/>
      <circle cx="79.975" cy="82.413" r=".30699"/>
      <circle cx="83.318" cy="85.89" r=".14424"/>
      <circle cx="83.318" cy="85.89" r=".24781"/>
      <path d="m81.012 81.22c-0.22593-8.86e-4 -0.47106 0.0099-0.72189 0.04087-0.50179 0.06194-1.0333 0.20322-1.4902 0.49695-0.45701 0.29379-0.83655 0.74478-1.023 1.3973-0.18895 0.66132-0.0336 1.2671 0.33348 1.7658 0.36707 0.49866 0.93739 0.89975 1.5915 1.2074 1.3083 0.61529 2.9537 0.86149 4.0642 0.64996 1.1057-0.2106 1.9414-0.88034 2.3245-1.6533 0.38314-0.773 0.29508-1.6733-0.44006-2.2451-1.4062-1.0937-3.4499-1.5471-3.4499-1.5471h-0.0013s-0.50935-0.11005-1.1874-0.1128zm-0.0051 0.28378c0.64264 0.0023 1.1297 0.10541 1.1306 0.1056h0.0013c0.0019 4.44e-4 2.0081 0.4602 3.3374 1.4941 0.63292 0.49227 0.69853 1.2115 0.35963 1.8953-0.3389 0.68373-1.1004 1.3069-2.1228 1.5016-1.0175 0.19382-2.6395-0.04094-3.8899-0.62903-0.62523-0.29405-1.1575-0.67499-1.484-1.1185-0.32646-0.44347-0.45508-0.93988-0.28934-1.5199 0.16823-0.58883 0.49712-0.97484 0.90464-1.2368 0.40752-0.26198 0.89671-0.39505 1.3702-0.45347 0.23659-0.02918 0.46811-0.03967 0.68232-0.0389z" color="#000000" color-rendering="auto" dominant-baseline="auto" image-rendering="auto" shape-rendering="auto" solid-color="#000000" style="font-feature-settings:normal;font-variant-alternates:normal;font-variant-caps:normal;font-variant-ligatures:normal;font-variant-numeric:normal;font-variant-position:normal;isolation:auto;mix-blend-mode:normal;shape-padding:0;text-decoration-color:#000000;text-decoration-line:none;text-decoration-style:solid;text-indent:0;text-orientation:mixed;text-transform:none;white-space:normal"/>
     </g>
    </g>
    <g transform="matrix(1.2603 0 0 1.2603 -8.9608 -21.569)">
     <path d="m70.245 82.216c0.69298-0.08451 1.2307 0.15269 1.6756 0.56841 0.4449 0.41572 0.78613 1.0149 1.038 1.6311 0.50369 1.2323 0.64998 2.5171 0.64998 2.5171l-0.0013-0.0013s0.06701 0.6184-0.23107 1.4865c-0.29809 0.86813-0.95806 1.9742-2.4368 2.9249-0.73562 0.47289-1.3166 0.62741-1.7856 0.57212-0.46898-0.0553-0.84557-0.31865-1.1801-0.73894-0.66902-0.84056-1.1217-2.3015-1.6249-3.7033-0.48691-1.3564-0.22861-2.5681 0.50539-3.5007 0.73401-0.93262 1.9539-1.5807 3.3907-1.7559z" color="#000000" color-rendering="auto" dominant-baseline="auto" fill="#915429" image-rendering="auto" shape-rendering="auto" solid-color="#000000" style="font-feature-settings:normal;font-variant-alternates:normal;font-variant-caps:normal;font-variant-ligatures:normal;font-variant-numeric:normal;font-variant-position:normal;isolation:auto;mix-blend-mode:normal;shape-padding:0;text-decoration-color:#000000;text-decoration-line:none;text-decoration-style:solid;text-indent:0;text-orientation:mixed;text-transform:none;white-space:normal"/>
     <path d="m73.605 86.536s-0.39948 1.879-1.4648 2.678c-1.0653 0.79896-1.9382 1.9826-2.678 1.8347-0.73978-0.14796-1.3464-0.13316-1.6275-0.3551-0.28112-0.22193-0.62142-0.44387-0.62142-0.44387l0.66581 1.0949 0.97651 0.651 1.3316-0.07398 2.101-1.3316 1.0653-1.5979 0.41428-1.5535z" fill="#663417"/>
     <g fill="#30110b">
      <circle cx="70.736" cy="83.533" r=".31312"/>
      <circle cx="69.597" cy="83.636" r=".60903"/>
      <circle cx="68.28" cy="87.72" r=".60903"/>
      <circle cx="70.41" cy="84.258" r=".28353"/>
      <circle cx="68.798" cy="90.901" r=".26873"/>
      <circle cx="69.537" cy="90.93" r=".32791"/>
      <path d="m70.495 81.916c-0.09265 5.02e-4 -0.18744 0.0065-0.28444 0.01831-1.5011 0.18306-2.7897 0.86014-3.5784 1.8622-0.78869 1.0021-1.0675 2.3343-0.55122 3.7726 0.49998 1.3928 0.94238 2.8687 1.6707 3.7837 0.36415 0.45751 0.81262 0.77821 1.3692 0.84383 0.55661 0.06563 1.2029-0.12083 1.9721-0.6153 1.5309-0.98413 2.2367-2.15 2.5528-3.0706 0.31609-0.92058 0.24488-1.6089 0.24488-1.6089s-0.14608-1.3152-0.66859-2.5936c-0.26127-0.63919-0.61624-1.2725-1.107-1.7312-0.42944-0.40128-0.97142-0.66488-1.62-0.66107zm0.0032 0.28313c0.57325-0.0055 1.0336 0.22179 1.4228 0.58555 0.4449 0.41572 0.7862 1.0146 1.038 1.6308 0.50369 1.2323 0.64996 2.5171 0.64996 2.5171l-0.0013-0.0013s0.06694 0.61814-0.23114 1.4863c-0.29809 0.86813-0.95799 1.9742-2.4367 2.9248-0.73562 0.47289-1.3164 0.62744-1.7854 0.57215-0.46898-0.0553-0.84575-0.3186-1.1803-0.73889-0.66902-0.84056-1.1217-2.3015-1.6249-3.7033-0.48691-1.3564-0.22855-2.5679 0.50545-3.5005 0.73401-0.93262 1.9539-1.5808 3.3907-1.756 0.08662-0.01056 0.17083-0.0162 0.25273-0.017z" color="#000000" color-rendering="auto" dominant-baseline="auto" image-rendering="auto" shape-rendering="auto" solid-color="#000000" style="font-feature-settings:normal;font-variant-alternates:normal;font-variant-caps:normal;font-variant-ligatures:normal;font-variant-numeric:normal;font-variant-position:normal;isolation:auto;mix-blend-mode:normal;shape-padding:0;text-decoration-color:#000000;text-decoration-line:none;text-decoration-style:solid;text-indent:0;text-orientation:mixed;text-transform:none;white-space:normal"/>
     </g>
    </g>
    <g transform="matrix(1.2603 0 0 1.2603 -29.038 -28.434)">
     <path d="m84.534 91.098c0.61545-0.0089 1.4042 0.02241 2.1612 0.18041 0.75704 0.15799 1.479 0.44332 1.9734 0.92552 0.49437 0.4822 0.77615 1.1567 0.65491 2.1612-0.05852 0.48483-0.28307 0.8734-0.64008 1.1924-0.35702 0.31903-0.84891 0.56347-1.4272 0.73646-1.1566 0.346-2.6543 0.40152-4.0728 0.23972-1.4185-0.1618-2.76-0.5419-3.602-1.0392-0.421-0.24864-0.71237-0.52589-0.83655-0.79824-0.12418-0.27236-0.10625-0.54042 0.12233-0.8588 1.9716-2.7461 4.5213-2.6814 4.5213-2.6814h0.0038c0.06834 0 0.17647-0.01263 0.37318-0.02595s0.46087-0.0277 0.76859-0.03213z" color="#000000" color-rendering="auto" dominant-baseline="auto" fill="#915429" image-rendering="auto" shape-rendering="auto" solid-color="#000000" style="font-feature-settings:normal;font-variant-alternates:normal;font-variant-caps:normal;font-variant-ligatures:normal;font-variant-numeric:normal;font-variant-position:normal;isolation:auto;mix-blend-mode:normal;shape-padding:0;text-decoration-color:#000000;text-decoration-line:none;text-decoration-style:solid;text-indent:0;text-orientation:mixed;text-transform:none;white-space:normal"/>
     <path d="m89.358 93.137s0.02961 0.6806-0.13316 0.94692c-0.16275 0.26632-0.47346 1.1245-1.0061 1.3612s-2.0566 0.87294-3.7433 0.79896c-1.6867-0.07398-4.202-0.26632-4.202-0.26632l1.302 0.47346 2.2341 0.3403 3.1515-0.20714 1.9826-0.97651 0.48826-1.0949 0.04441-0.93212z" fill="#663417"/>
     <g fill="#30110b">
      <circle cx="85.123" cy="92.127" r=".51413"/>
      <circle cx="84.102" cy="92.009" r=".30699"/>
      <circle cx="84.31" cy="92.66" r=".18863"/>
      <circle cx="82.031" cy="94.465" r=".30699"/>
      <circle cx="87.639" cy="95.574" r=".30699"/>
      <circle cx="88.319" cy="94.938" r=".51413"/>
      <path d="m84.531 90.814c-0.31423 0.0046-0.5846 0.0198-0.78465 0.03335-0.20006 0.01356-0.35011 0.02485-0.35343 0.02485-0.0038-6.2e-5 -2.7153-0.04108-4.755 2.7999-0.27301 0.38026-0.31261 0.78694-0.15071 1.142 0.16189 0.35506 0.50034 0.65844 0.95041 0.92426 0.90015 0.53164 2.2666 0.91245 3.7144 1.0776 1.4478 0.16513 2.9739 0.11295 4.1865-0.24978 0.60627-0.18137 1.1354-0.44027 1.5347-0.79708 0.3993-0.35681 0.66579-0.81602 0.73267-1.3702 0.12956-1.0735-0.1864-1.8586-0.73888-2.3975-0.55249-0.5389-1.325-0.8363-2.113-1.0008-0.78806-0.16446-1.5944-0.19574-2.2229-0.18668zm0.0038 0.28444c0.61545-0.0089 1.4044 0.02215 2.1614 0.18014 0.75704 0.15799 1.479 0.44336 1.9734 0.92557 0.49437 0.48221 0.7761 1.1569 0.65486 2.1614-0.05852 0.48483-0.28313 0.87332-0.64015 1.1924-0.35701 0.31902-0.84879 0.56359-1.4271 0.73659-1.1566 0.346-2.6545 0.40145-4.073 0.23965-1.4185-0.1618-2.7599-0.54204-3.6019-1.0393-0.421-0.24864-0.71246-0.5257-0.83664-0.79806-0.12417-0.27235-0.10631-0.54049 0.12228-0.85887 1.9716-2.7461 4.5216-2.6816 4.5216-2.6816h0.0038c0.06834 0 0.17633-0.01251 0.37304-0.02583 0.19671-0.01332 0.46091-0.02761 0.76864-0.03204z" color="#000000" color-rendering="auto" dominant-baseline="auto" image-rendering="auto" shape-rendering="auto" solid-color="#000000" style="font-feature-settings:normal;font-variant-alternates:normal;font-variant-caps:normal;font-variant-ligatures:normal;font-variant-numeric:normal;font-variant-position:normal;isolation:auto;mix-blend-mode:normal;shape-padding:0;text-decoration-color:#000000;text-decoration-line:none;text-decoration-style:solid;text-indent:0;text-orientation:mixed;text-transform:none;white-space:normal"/>
     </g>
    </g>
    <g transform="matrix(1.2603 0 0 1.2603 -16.763 -37.411)">
     <g transform="translate(2.9435 1.8852)" stroke-width=".91547">
      <path d="m88.853 98.55c0.3278-0.0578 0.63526 0.055 0.91016 0.24609 0.54979 0.3821 0.92773 1.0606 0.92773 1.0606 8.19e-4 2e-3 0.19106 0.35872 0.2168 0.85352 0.02579 0.49586-0.10667 1.1132-0.78711 1.6621-0.65147 0.52549-1.6169 0.33953-2.2383-0.26172-0.62137-0.60125-0.89559-1.5871-0.11719-2.707 0.39152-0.56331 0.76009-0.79575 1.0879-0.85352z" color="#000000" color-rendering="auto" dominant-baseline="auto" fill="#915429" image-rendering="auto" shape-rendering="auto" solid-color="#000000" style="font-feature-settings:normal;font-variant-alternates:normal;font-variant-caps:normal;font-variant-ligatures:normal;font-variant-numeric:normal;font-variant-position:normal;isolation:auto;mix-blend-mode:normal;shape-padding:0;text-decoration-color:#000000;text-decoration-line:none;text-decoration-style:solid;text-indent:0;text-orientation:mixed;text-transform:none;white-space:normal"/>
      <path d="m90.904 100.08s-0.19844 1.4469-0.83509 1.8769c-0.63665 0.42995-1.6206 0.44648-1.9182 0.16536-0.29766-0.28112-0.35553 0.0165-0.35553 0.0165l0.38861 0.39687 1.0335 0.33073 1.2072-0.47955 0.678-1.1328z" fill="#663417"/>
      <g fill="#30110b">
       <circle cx="89.553" cy="99.335" r=".23283"/>
       <circle cx="89.792" cy="99.79" r=".11707"/>
       <circle cx="89.462" cy="99.757" r=".14188"/>
       <circle cx="88.866" cy="102.3" r=".18322"/>
       <circle cx="89.222" cy="102.28" r=".11707"/>
      </g>
     </g>
     <path d="m91.906 100.16c-0.05068 2e-3 -0.10216 8e-3 -0.154 0.0176-0.41465 0.0731-0.84507 0.36502-1.2619 0.9648-0.83837 1.2062-0.55045 2.3687 0.15038 3.0468s1.8165 0.90142 2.59 0.27751c0.74452-0.60055 0.91371-1.3233 0.8847-1.881-0.02901-0.55775-0.24805-0.96686-0.24805-0.96686s-0.38807-0.71826-1.0098-1.1503c-0.27199-0.18903-0.5966-0.32617-0.95136-0.30851zm0.01292 0.26562c0.28221-0.0145 0.54753 0.0927 0.78806 0.25993 0.54979 0.3821 0.92759 1.0604 0.92759 1.0604 8.19e-4 2e-3 0.1913 0.3589 0.21704 0.8537 0.02579 0.49586-0.1066 1.113-0.78703 1.6619-0.65147 0.52549-1.6173 0.33977-2.2386-0.26148-0.62137-0.60125-0.89519-1.5874-0.11679-2.7073 0.39152-0.56331 0.75999-0.79593 1.0878-0.8537 0.04098-7e-3 0.08164-0.0114 0.12196-0.0134z" color="#000000" color-rendering="auto" dominant-baseline="auto" fill="#30110b" image-rendering="auto" shape-rendering="auto" solid-color="#000000" style="font-feature-settings:normal;font-variant-alternates:normal;font-variant-caps:normal;font-variant-ligatures:normal;font-variant-numeric:normal;font-variant-position:normal;isolation:auto;mix-blend-mode:normal;shape-padding:0;text-decoration-color:#000000;text-decoration-line:none;text-decoration-style:solid;text-indent:0;text-orientation:mixed;text-transform:none;white-space:normal"/>
    </g>
    <g transform="matrix(0 -1.2603 1.2603 0 -50.891 164.41)">
     <path d="m61.82 90.975c0.46526 0.05438 0.80531 0.31382 1.0625 0.64844 0.51437 0.66924 0.6582 1.627 0.6582 1.627v0.0078l2e-3 0.0078s0.44965 1.7273 0.28906 3.3848c-0.08029 0.82874-0.31388 1.6323-0.8125 2.1953-0.49862 0.56303-1.2612 0.90543-2.4707 0.80274-1.2142-0.10309-2.0382-0.52223-2.5586-1.1172-0.52041-0.59496-0.74233-1.3753-0.7168-2.2207 0.05107-1.6909 1.108-3.626 2.6836-4.6992 0.79019-0.53825 1.398-0.6911 1.8633-0.63672z" color="#000000" color-rendering="auto" dominant-baseline="auto" fill="#915429" image-rendering="auto" shape-rendering="auto" solid-color="#000000" style="font-feature-settings:normal;font-variant-alternates:normal;font-variant-caps:normal;font-variant-ligatures:normal;font-variant-numeric:normal;font-variant-position:normal;isolation:auto;mix-blend-mode:normal;shape-padding:0;text-decoration-color:#000000;text-decoration-line:none;text-decoration-style:solid;text-indent:0;text-orientation:mixed;text-transform:none;white-space:normal"/>
     <path d="m63.942 95.843s-0.47941 2.1866-2.2217 2.5257c-1.7423 0.3391-2.1164 0.25725-2.4555-0.01169-0.3391-0.26894-0.74836 0.18709-1.0407 0.03508-0.29233-0.15201-0.45603 0.03508-0.45603 0.03508l0.70158 0.72497 1.1927 0.47942 1.3681 0.1637 1.4967-0.29232 0.92375-1.0056 0.52619-1.5318z" fill="#663417"/>
     <g fill="#30110b">
      <circle cx="60.36" cy="93.148" r=".6227"/>
      <circle cx="59.665" cy="94.033" r=".30851"/>
      <circle cx="61.683" cy="93.991" r=".6227"/>
      <circle cx="60.567" cy="94.256" r=".39946"/>
      <path transform="matrix(.26458 0 0 .26458 106.28 71.075)" d="m-168.73 74.176c-1.9152-8.48e-4 -4.1987 0.76029-6.9219 2.6152-6.2424 4.2521-10.381 11.778-10.586 18.557-0.10235 3.3896 0.80122 6.611 2.9609 9.0801 2.1597 2.4691 5.5616 4.1566 10.342 4.5625 4.7979 0.40737 8.079-1.0039 10.172-3.3672s2.9992-5.6114 3.3144-8.8652c0.62945-6.4967-1.1172-13.095-1.123-13.117-5e-3 -0.03477-0.51588-3.7867-2.6719-6.5918-1.083-1.409-2.6176-2.5862-4.6875-2.8281-0.25873-0.03024-0.52522-0.0448-0.79883-0.04492zm-4e-3 0.99609c0.23694-1e-4 0.46574 0.01337 0.68554 0.03906 1.7584 0.20553 3.0436 1.1865 4.0156 2.4512 1.9441 2.5294 2.4863 6.1484 2.4863 6.1484v0.0293l8e-3 0.0293s1.7007 6.5285 1.0938 12.793c-0.30346 3.1323-1.1877 6.1689-3.0723 8.2969-1.8846 2.128-4.7666 3.4233-9.3379 3.0352-4.589-0.38963-7.703-1.974-9.6699-4.2227-1.9669-2.2486-2.8055-5.1992-2.709-8.3945 0.19302-6.3907 4.1874-13.703 10.143-17.76 2.6132-1.78 4.6988-2.4446 6.3574-2.4453z" color="#000000" color-rendering="auto" dominant-baseline="auto" image-rendering="auto" shape-rendering="auto" solid-color="#000000" style="font-feature-settings:normal;font-variant-alternates:normal;font-variant-caps:normal;font-variant-ligatures:normal;font-variant-numeric:normal;font-variant-position:normal;isolation:auto;mix-blend-mode:normal;shape-padding:0;text-decoration-color:#000000;text-decoration-line:none;text-decoration-style:solid;text-indent:0;text-orientation:mixed;text-transform:none;white-space:normal"/>
     </g>
    </g>
    <g transform="matrix(1.2603 0 0 1.2603 -30.022 -26.936)">
     <path d="m95.959 89.116c0.01012 0.0023 1.2215 0.27395 2.3713 1.2147 1.1546 0.94466 2.237 2.5436 1.9548 5.2591-0.14062 1.3535-0.61165 2.275-1.2406 2.8643-0.62897 0.58932-1.4215 0.85139-2.2292 0.86003-1.6153 0.01727-3.2609-0.99968-3.6329-2.3861-0.78138-2.9124-0.21533-4.0046 0.21748-6.1685 0.20512-1.0257 0.82726-1.4147 1.4198-1.5755 0.59254-0.16083 1.1393-0.06796 1.1393-0.06796z" color="#000000" color-rendering="auto" dominant-baseline="auto" fill="#915429" image-rendering="auto" shape-rendering="auto" solid-color="#000000" style="font-feature-settings:normal;font-variant-alternates:normal;font-variant-caps:normal;font-variant-ligatures:normal;font-variant-numeric:normal;font-variant-position:normal;isolation:auto;mix-blend-mode:normal;shape-padding:0;text-decoration-color:#000000;text-decoration-line:none;text-decoration-style:solid;text-indent:0;text-orientation:mixed;text-transform:none;white-space:normal"/>
     <path d="m100.32 93.235s-0.24286 2.7093-1.3229 3.5082c-1.0801 0.79896-2.1498 1.2407-2.6085 1.004s-2.2679 0.1188-2.6378-0.13272c-0.3699-0.25153-0.7102-0.48826-0.7102-0.48826l0.79896 1.2132 1.2576 0.78417 1.8938 0.3255 1.9678-0.60662 1.0061-1.3612 0.59183-2.1602z" fill="#663417"/>
     <g fill="#30110b">
      <circle cx="96.65" cy="90.97" r=".71365"/>
      <circle cx="94.934" cy="91.012" r=".29517"/>
      <circle cx="94.181" cy="92.937" r=".29517"/>
      <circle cx="94.076" cy="95.72" r=".29517"/>
      <circle cx="94.076" cy="95.72" r=".60903"/>
      <circle cx="95.206" cy="95.992" r=".2324"/>
      <path d="m95.625 88.806c-0.23273-0.0036-0.54842 0.01518-0.87914 0.10495-0.66145 0.17954-1.3988 0.66889-1.6236 1.7929-0.4271 2.1354-1.0089 3.3347-0.21382 6.2982 0.41627 1.5515 2.1752 2.6135 3.9099 2.5949 0.86733-0.0093 1.7352-0.29441 2.4207-0.93668 0.68547-0.64227 1.1823-1.6369 1.3284-3.0422 0.29112-2.8021-0.84734-4.5172-2.0574-5.5073-1.2101-0.99007-2.4949-1.2741-2.4949-1.2741h-0.0038l-0.0038-0.0013s-0.1498-0.02582-0.38252-0.02943zm-0.0131 0.28378c0.21076 0.0031 0.34754 0.02615 0.34754 0.02615 0.01012 0.0023 1.2215 0.27419 2.3713 1.2149 1.1546 0.94466 2.2369 2.5433 1.9548 5.2588-0.14062 1.3535-0.61177 2.275-1.2407 2.8643-0.62897 0.58932-1.4214 0.85154-2.2291 0.86018-1.6153 0.01727-3.261-0.99992-3.633-2.3863-0.78138-2.9124-0.21507-4.0044 0.21774-6.1684 0.20512-1.0257 0.82704-1.4147 1.4196-1.5755 0.29627-0.08042 0.58109-0.09727 0.79185-0.09416z" color="#000000" color-rendering="auto" dominant-baseline="auto" image-rendering="auto" shape-rendering="auto" solid-color="#000000" style="font-feature-settings:normal;font-variant-alternates:normal;font-variant-caps:normal;font-variant-ligatures:normal;font-variant-numeric:normal;font-variant-position:normal;isolation:auto;mix-blend-mode:normal;shape-padding:0;text-decoration-color:#000000;text-decoration-line:none;text-decoration-style:solid;text-indent:0;text-orientation:mixed;text-transform:none;white-space:normal"/>
     </g>
    </g>
    <g transform="matrix(1.2603 0 0 1.2603 -31.163 -12.904)">
     <path d="m91.789 80.13c-0.48544-0.10926-1.0239-0.1194-1.5236 0.11368-0.49967 0.23308-0.94806 0.70734-1.2616 1.5174-0.31399 0.81115-0.30402 1.5024-0.08526 2.0623 0.21876 0.55998 0.63965 0.98251 1.1245 1.2826 0.48482 0.30013 1.0349 0.48056 1.5298 0.55853 0.49491 0.07797 0.93089 0.06256 1.2221-0.07538 0.27961-0.13245 0.54996-0.40736 0.7933-0.76241 0.24335-0.35506 0.45584-0.79265 0.58818-1.2554 0.13234-0.4628 0.1853-0.95223 0.10133-1.4099-0.08388-0.45713-0.31019-0.88275-0.72411-1.1937 0 0-0.79367-0.61926-1.7645-0.83779z" color="#000000" color-rendering="auto" dominant-baseline="auto" fill="#30110b" image-rendering="auto" shape-rendering="auto" solid-color="#000000" style="font-feature-settings:normal;font-variant-alternates:normal;font-variant-caps:normal;font-variant-ligatures:normal;font-variant-numeric:normal;font-variant-position:normal;isolation:auto;mix-blend-mode:normal;shape-padding:0;text-decoration-color:#000000;text-decoration-line:none;text-decoration-style:solid;text-indent:0;text-orientation:mixed;text-transform:none;white-space:normal"/>
     <path d="m91.726 80.407c0.89031 0.20039 1.6546 0.78466 1.6546 0.78466v0.0013h0.0013c0.35591 0.26681 0.54306 0.61982 0.6166 1.0207 0.07355 0.40085 0.02809 0.84916-0.09515 1.2802-0.12325 0.43101-0.32344 0.84408-0.54864 1.1727-0.2252 0.32858-0.48036 0.57047-0.68209 0.66603-0.19016 0.09007-0.59538 0.12435-1.0553 0.0519-0.45989-0.07245-0.97852-0.24276-1.4247-0.51899-0.44621-0.27623-0.81944-0.65442-1.0108-1.1442-0.19134-0.48982-0.20753-1.0976 0.0865-1.8572 0.29444-0.76067 0.69201-1.1641 1.1183-1.363 0.42628-0.19885 0.89433-0.19411 1.3395-0.09391z" color="#000000" color-rendering="auto" dominant-baseline="auto" fill="#915429" image-rendering="auto" shape-rendering="auto" solid-color="#000000" style="font-feature-settings:normal;font-variant-alternates:normal;font-variant-caps:normal;font-variant-ligatures:normal;font-variant-numeric:normal;font-variant-position:normal;isolation:auto;mix-blend-mode:normal;shape-padding:0;text-decoration-color:#000000;text-decoration-line:none;text-decoration-style:solid;text-indent:0;text-orientation:mixed;text-transform:none;white-space:normal"/>
     <g fill="#30110b">
      <circle cx="91.412" cy="81.051" r=".27201"/>
      <circle cx="90.575" cy="81.166" r=".27201"/>
      <circle cx="91.057" cy="81.762" r=".36617"/>
     </g>
     <path d="m94.181 82.447s-0.45866 2.5301-2.3229 2.4265c-1.8643-0.10357-2.6336-0.78417-2.6336-0.78417l0.84335 0.81376 0.81376 0.39948 1.1689 0.26632 0.85814-0.13316 0.78417-1.0061 0.45866-1.0949z" fill="#663417"/>
     <g fill="#30110b">
      <path d="m91.226 80.057c-0.32019-0.0092-0.6476 0.04166-0.9599 0.18734-0.49966 0.23308-0.94809 0.70726-1.2617 1.5173-0.31399 0.81115-0.30408 1.5024-0.08533 2.0623 0.21875 0.55998 0.63985 0.98246 1.1247 1.2826 0.48482 0.30013 1.0348 0.48077 1.5298 0.55874 0.4949 0.07797 0.9309 0.06241 1.2221-0.07552 0.27961-0.13245 0.54981-0.40737 0.79316-0.76242 0.24335-0.35506 0.45582-0.79265 0.58817-1.2554 0.13234-0.4628 0.18533-0.95208 0.10135-1.4098-0.08388-0.45713-0.31025-0.88274-0.72418-1.1937 0 0-0.79361-0.61942-1.7645-0.83795-0.18204-0.040975-0.37153-0.068069-0.56364-0.073565zm-0.0066 0.28378c0.16996 5e-3 0.34015 0.02912 0.50708 0.0667 0.89031 0.20039 1.6546 0.78466 1.6546 0.78466v0.0013h0.0013c0.35591 0.26681 0.54306 0.61953 0.61661 1.0204 0.07355 0.40085 0.02809 0.84929-0.09514 1.2803-0.12325 0.43101-0.32341 0.84416-0.5486 1.1727-0.2252 0.32858-0.48059 0.57042-0.68232 0.66598-0.19017 0.09008-0.59515 0.12444-1.055 0.05199-0.45989-0.07245-0.97858-0.24295-1.4248-0.51918-0.44621-0.27623-0.81956-0.65448-1.0109-1.1443s-0.2074-1.0974 0.08664-1.857c0.29444-0.76066 0.69185-1.1642 1.1181-1.363 0.26643-0.12428 0.54912-0.1689 0.83239-0.16053z" color="#000000" color-rendering="auto" dominant-baseline="auto" image-rendering="auto" shape-rendering="auto" solid-color="#000000" style="font-feature-settings:normal;font-variant-alternates:normal;font-variant-caps:normal;font-variant-ligatures:normal;font-variant-numeric:normal;font-variant-position:normal;isolation:auto;mix-blend-mode:normal;shape-padding:0;text-decoration-color:#000000;text-decoration-line:none;text-decoration-style:solid;text-indent:0;text-orientation:mixed;text-transform:none;white-space:normal"/>
      <circle cx="93.453" cy="83.819" r=".23301"/>
      <circle cx="93.217" cy="84.277" r=".14424"/>
     </g>
    </g>
    <g transform="matrix(1.2603 0 0 1.2603 -17.882 -29.839)">
     <path d="m72.662 93.83c1.7268 0.12999 3.1328 1.2539 3.1328 1.2539l0.0059 0.0039 0.20898 0.16797v-0.0078c0.14882 0.10654 0.4517 0.31717 0.95703 0.73828 0.61541 0.51284 1.2965 1.1648 1.5391 1.6348 0.2304 0.4464 0.06574 1.0966-0.31445 1.7129-0.38019 0.6163-0.96566 1.184-1.4805 1.4492-0.22762 0.11727-0.75266 0.19751-1.3965 0.22461s-1.4153 0.01-2.1797-0.0293c-1.5287-0.0783-3.0382-0.24448-3.4551-0.3086-0.17038-0.0262-0.35556-0.14729-0.53711-0.35547-0.18155-0.20817-0.3566-0.49734-0.50781-0.83203-0.30243-0.66938-0.51408-1.5193-0.5625-2.2617-0.04866-0.7461 0.03571-1.2412 0.42773-1.6992 0.39202-0.45801 1.1188-0.88564 2.3691-1.4121 0.60694-0.25555 1.2174-0.32263 1.793-0.2793z" color="#000000" color-rendering="auto" dominant-baseline="auto" fill="#915429" image-rendering="auto" shape-rendering="auto" solid-color="#000000" style="font-feature-settings:normal;font-variant-alternates:normal;font-variant-caps:normal;font-variant-ligatures:normal;font-variant-numeric:normal;font-variant-position:normal;isolation:auto;mix-blend-mode:normal;shape-padding:0;text-decoration-color:#000000;text-decoration-line:none;text-decoration-style:solid;text-indent:0;text-orientation:mixed;text-transform:none;white-space:normal"/>
     <path d="m77.951 96.732s0.88867 1.5903-0.35079 2.2217c-1.2395 0.63143-3.2741 1.3213-5.0631 1.4149-1.789 0.0935-2.9466-0.24555-3.0753-0.42095-0.12862-0.1754-0.81852-0.11693-0.81852-0.11693l0.5028 0.77174 0.76005 0.28064 5.753 0.33909 1.0875-0.29232 1.4032-1.1693 0.65481-1.5318-0.11693-0.70158z" fill="#663417"/>
     <g fill="#30110b">
      <circle cx="74.548" cy="95.833" r=".34207"/>
      <circle cx="73.285" cy="95.213" r=".30699"/>
      <circle cx="73.671" cy="96.721" r=".6344"/>
      <circle cx="69.835" cy="99.68" r=".6227"/>
      <circle cx="69.391" cy="96.464" r=".15498"/>
      <circle cx="76.418" cy="99.434" r=".51747"/>
      <circle cx="77.33" cy="99.142" r=".2953"/>
      <path transform="matrix(.26458 0 0 .26458 106.28 71.075)" d="m-128.78 84.955c-1.7764 0.05631-3.6169 0.40409-5.459 1.1797-4.7742 2.0102-7.6496 3.6549-9.3242 5.6113-1.6746 1.9564-2.0427 4.2086-1.8516 7.1387 0.192 2.9442 1.0142 6.2292 2.2148 8.8867 0.60035 1.3288 1.2956 2.5036 2.0742 3.3965 0.77867 0.89287 1.6537 1.5249 2.6348 1.6758 1.6745 0.25776 7.3383 0.87596 13.154 1.1738 2.908 0.14891 5.8494 0.22188 8.334 0.11719 2.4846-0.1047 4.4892-0.34749 5.6914-0.9668 2.1793-1.1227 4.4545-3.3567 5.9863-5.8398 1.5318-2.4832 2.3558-5.2672 1.2266-7.4551-1.0832-2.0987-3.699-4.5203-6.0605-6.4883-2.3461-1.9551-4.4161-3.4066-4.4434-3.4258 0 0-0.0312-0.02111-0.0312-0.02148l-0.78125-0.54688v0.11133c-0.85831-0.65975-5.3171-4.0602-11.611-4.5098-0.57527-0.04109-1.1618-0.05588-1.7539-0.03711zm0.0547 1.0078c0.55807-0.01583 1.1104-0.0019 1.6543 0.03906 6.5265 0.49131 11.84 4.7402 11.84 4.7402l0.0234 0.01367 0.78906 0.63477v-0.0293c0.56248 0.40269 1.7073 1.1994 3.6172 2.791 2.326 1.9383 4.8996 4.4015 5.8164 6.1777 0.87081 1.6872 0.24945 4.1453-1.1875 6.4746-1.4369 2.3293-3.65 4.4762-5.5957 5.4785-0.86029 0.44323-2.844 0.74523-5.2773 0.84766-2.4334 0.10242-5.3494 0.0372-8.2383-0.11133-5.7778-0.29594-11.483-0.92367-13.059-1.166-0.64396-0.099-1.3451-0.55693-2.0312-1.3438-0.68617-0.78679-1.3464-1.8796-1.918-3.1445-1.143-2.53-1.944-5.7411-2.127-8.5469-0.18391-2.8199 0.13552-4.6928 1.6172-6.4238 1.4817-1.7311 4.2273-3.3461 8.9531-5.3359 1.7205-0.7244 3.4488-1.0482 5.123-1.0957z" color="#000000" color-rendering="auto" dominant-baseline="auto" image-rendering="auto" shape-rendering="auto" solid-color="#000000" style="font-feature-settings:normal;font-variant-alternates:normal;font-variant-caps:normal;font-variant-ligatures:normal;font-variant-numeric:normal;font-variant-position:normal;isolation:auto;mix-blend-mode:normal;shape-padding:0;text-decoration-color:#000000;text-decoration-line:none;text-decoration-style:solid;text-indent:0;text-orientation:mixed;text-transform:none;white-space:normal"/>
     </g>
    </g>
    <g transform="matrix(1.2603 0 0 1.2603 -47.831 -10.725)">
     <path d="m91.789 80.13c-0.48544-0.10926-1.0239-0.1194-1.5236 0.11368-0.49967 0.23308-0.94806 0.70734-1.2616 1.5174-0.31399 0.81115-0.30402 1.5024-0.08526 2.0623 0.21876 0.55998 0.63965 0.98251 1.1245 1.2826 0.48482 0.30013 1.0349 0.48056 1.5298 0.55853 0.49491 0.07797 0.93089 0.06256 1.2221-0.07538 0.27961-0.13245 0.54996-0.40736 0.7933-0.76241 0.24335-0.35506 0.45584-0.79265 0.58818-1.2554 0.13234-0.4628 0.1853-0.95223 0.10133-1.4099-0.08388-0.45713-0.31019-0.88275-0.72411-1.1937 0 0-0.79367-0.61926-1.7645-0.83779z" color="#000000" color-rendering="auto" dominant-baseline="auto" fill="#30110b" image-rendering="auto" shape-rendering="auto" solid-color="#000000" style="font-feature-settings:normal;font-variant-alternates:normal;font-variant-caps:normal;font-variant-ligatures:normal;font-variant-numeric:normal;font-variant-position:normal;isolation:auto;mix-blend-mode:normal;shape-padding:0;text-decoration-color:#000000;text-decoration-line:none;text-decoration-style:solid;text-indent:0;text-orientation:mixed;text-transform:none;white-space:normal"/>
     <path d="m91.726 80.407c0.89031 0.20039 1.6546 0.78466 1.6546 0.78466v0.0013h0.0013c0.35591 0.26681 0.54306 0.61982 0.6166 1.0207 0.07355 0.40085 0.02809 0.84916-0.09515 1.2802-0.12325 0.43101-0.32344 0.84408-0.54864 1.1727-0.2252 0.32858-0.48036 0.57047-0.68209 0.66603-0.19016 0.09007-0.59538 0.12435-1.0553 0.0519-0.45989-0.07245-0.97852-0.24276-1.4247-0.51899-0.44621-0.27623-0.81944-0.65442-1.0108-1.1442-0.19134-0.48982-0.20753-1.0976 0.0865-1.8572 0.29444-0.76067 0.69201-1.1641 1.1183-1.363 0.42628-0.19885 0.89433-0.19411 1.3395-0.09391z" color="#000000" color-rendering="auto" dominant-baseline="auto" fill="#915429" image-rendering="auto" shape-rendering="auto" solid-color="#000000" style="font-feature-settings:normal;font-variant-alternates:normal;font-variant-caps:normal;font-variant-ligatures:normal;font-variant-numeric:normal;font-variant-position:normal;isolation:auto;mix-blend-mode:normal;shape-padding:0;text-decoration-color:#000000;text-decoration-line:none;text-decoration-style:solid;text-indent:0;text-orientation:mixed;text-transform:none;white-space:normal"/>
     <g fill="#30110b">
      <circle cx="91.412" cy="81.051" r=".27201"/>
      <circle cx="90.575" cy="81.166" r=".27201"/>
      <circle cx="91.057" cy="81.762" r=".36617"/>
     </g>
     <path d="m94.181 82.447s-0.45866 2.5301-2.3229 2.4265c-1.8643-0.10357-2.6336-0.78417-2.6336-0.78417l0.84335 0.81376 0.81376 0.39948 1.1689 0.26632 0.85814-0.13316 0.78417-1.0061 0.45866-1.0949z" fill="#663417"/>
     <g fill="#30110b">
      <path d="m91.226 80.057c-0.32019-0.0092-0.6476 0.04166-0.9599 0.18734-0.49966 0.23308-0.94809 0.70726-1.2617 1.5173-0.31399 0.81115-0.30408 1.5024-0.08533 2.0623 0.21875 0.55998 0.63985 0.98246 1.1247 1.2826 0.48482 0.30013 1.0348 0.48077 1.5298 0.55874 0.4949 0.07797 0.9309 0.06241 1.2221-0.07552 0.27961-0.13245 0.54981-0.40737 0.79316-0.76242 0.24335-0.35506 0.45582-0.79265 0.58817-1.2554 0.13234-0.4628 0.18533-0.95208 0.10135-1.4098-0.08388-0.45713-0.31025-0.88274-0.72418-1.1937 0 0-0.79361-0.61942-1.7645-0.83795-0.18204-0.040975-0.37153-0.068069-0.56364-0.073565zm-0.0066 0.28378c0.16996 5e-3 0.34015 0.02912 0.50708 0.0667 0.89031 0.20039 1.6546 0.78466 1.6546 0.78466v0.0013h0.0013c0.35591 0.26681 0.54306 0.61953 0.61661 1.0204 0.07355 0.40085 0.02809 0.84929-0.09514 1.2803-0.12325 0.43101-0.32341 0.84416-0.5486 1.1727-0.2252 0.32858-0.48059 0.57042-0.68232 0.66598-0.19017 0.09008-0.59515 0.12444-1.055 0.05199-0.45989-0.07245-0.97858-0.24295-1.4248-0.51918-0.44621-0.27623-0.81956-0.65448-1.0109-1.1443s-0.2074-1.0974 0.08664-1.857c0.29444-0.76066 0.69185-1.1642 1.1181-1.363 0.26643-0.12428 0.54912-0.1689 0.83239-0.16053z" color="#000000" color-rendering="auto" dominant-baseline="auto" image-rendering="auto" shape-rendering="auto" solid-color="#000000" style="font-feature-settings:normal;font-variant-alternates:normal;font-variant-caps:normal;font-variant-ligatures:normal;font-variant-numeric:normal;font-variant-position:normal;isolation:auto;mix-blend-mode:normal;shape-padding:0;text-decoration-color:#000000;text-decoration-line:none;text-decoration-style:solid;text-indent:0;text-orientation:mixed;text-transform:none;white-space:normal"/>
      <circle cx="93.453" cy="83.819" r=".23301"/>
      <circle cx="93.217" cy="84.277" r=".14424"/>
     </g>
    </g>
   </g>
   <path d="m82.142 92.6c1.1927-0.14715 2.2831 0.08378 2.2846 0.0841h0.0016c0.0024 5.58e-4 2.531 0.57975 4.2063 1.8828 0.79764 0.6204 0.88028 1.5272 0.45317 2.3889-0.4271 0.8617-1.3869 1.6467-2.6754 1.8921-1.2824 0.24427-3.3264-0.05155-4.9024-0.79266-0.78797-0.37057-1.4589-0.85046-1.8703-1.4094-0.41142-0.55889-0.57327-1.1844-0.36441-1.9155 0.21203-0.74208 0.62636-1.2287 1.1399-1.5589 0.5136-0.33017 1.1303-0.4979 1.727-0.57153z" color="#000000" color-rendering="auto" dominant-baseline="auto" fill="#915429" image-rendering="auto" shape-rendering="auto" solid-color="#000000" style="font-feature-settings:normal;font-variant-alternates:normal;font-variant-caps:normal;font-variant-ligatures:normal;font-variant-numeric:normal;font-variant-position:normal;isolation:auto;mix-blend-mode:normal;shape-padding:0;text-decoration-color:#000000;text-decoration-line:none;text-decoration-style:solid;text-indent:0;text-orientation:mixed;text-transform:none;white-space:normal"/>
   <path d="m89.442 95.772s-0.24241 1.1747-1.5663 1.6595c-1.3239 0.48482-2.9089 0.91369-4.1582 0.76451-1.2493-0.14917-3.375-0.67127-3.375-0.67127l1.5477 0.89504 1.9579 0.48482 2.2562 0.14917 1.8647-0.5594 1.1934-1.1001z" fill="#663417"/>
   <g fill="#30110b">
    <circle cx="82.651" cy="94.909" r=".74118"/>
    <circle cx="84.758" cy="93.958" r=".18178"/>
    <circle cx="86.249" cy="94.611" r=".3496"/>
    <circle cx="82.595" cy="96.848" r=".31231"/>
    <circle cx="80.469" cy="95.673" r=".18178"/>
    <circle cx="81.7" cy="93.697" r=".38689"/>
    <circle cx="85.914" cy="98.079" r=".18178"/>
    <circle cx="85.914" cy="98.079" r=".31231"/>
    <path d="m83.006 92.193c-0.28474-0.0011-0.59367 0.01248-0.90978 0.05151-0.63239 0.07806-1.3022 0.25611-1.8781 0.62629-0.57596 0.37026-1.0543 0.93863-1.2893 1.761-0.23813 0.83345-0.04234 1.597 0.42028 2.2254 0.46262 0.62844 1.1814 1.1339 2.0058 1.5216 1.6488 0.77544 3.7224 1.0857 5.122 0.81913 1.3935-0.26543 2.4467-1.1095 2.9296-2.0837 0.48286-0.97419 0.3719-2.1088-0.55458-2.8294-1.7722-1.3783-4.3478-1.9498-4.3478-1.9498h-0.0016s-0.64192-0.1387-1.4965-0.14215zm-0.0064 0.35765c0.8099 0.0029 1.4237 0.13285 1.4248 0.13309h0.0016c0.0024 5.6e-4 2.5307 0.57998 4.2061 1.883 0.79766 0.6204 0.88034 1.5269 0.45325 2.3886-0.42711 0.86169-1.3868 1.647-2.6753 1.8925-1.2824 0.24427-3.3265-0.05154-4.9024-0.79275-0.78797-0.37057-1.4588-0.85068-1.8702-1.4096-0.41142-0.55889-0.57352-1.1845-0.36465-1.9156 0.21202-0.74209 0.62651-1.2286 1.1401-1.5587 0.51359-0.33017 1.1301-0.49787 1.7268-0.57149 0.29816-0.03677 0.58995-0.05 0.85991-0.04903z" color="#000000" color-rendering="auto" dominant-baseline="auto" image-rendering="auto" shape-rendering="auto" solid-color="#000000" style="font-feature-settings:normal;font-variant-alternates:normal;font-variant-caps:normal;font-variant-ligatures:normal;font-variant-numeric:normal;font-variant-position:normal;isolation:auto;mix-blend-mode:normal;shape-padding:0;text-decoration-color:#000000;text-decoration-line:none;text-decoration-style:solid;text-indent:0;text-orientation:mixed;text-transform:none;white-space:normal"/>
   </g>
   <g transform="matrix(1.2603 0 0 1.2603 -52.41 -39.495)" stroke-width=".91547">
    <g transform="translate(2.9435 1.8852)" stroke-width=".91547">
     <path d="m88.853 98.55c0.3278-0.0578 0.63526 0.055 0.91016 0.24609 0.54979 0.3821 0.92773 1.0606 0.92773 1.0606 8.19e-4 2e-3 0.19106 0.35872 0.2168 0.85352 0.02579 0.49586-0.10667 1.1132-0.78711 1.6621-0.65147 0.52549-1.6169 0.33953-2.2383-0.26172-0.62137-0.60125-0.89559-1.5871-0.11719-2.707 0.39152-0.56331 0.76009-0.79575 1.0879-0.85352z" color="#000000" color-rendering="auto" dominant-baseline="auto" fill="#915429" image-rendering="auto" shape-rendering="auto" solid-color="#000000" style="font-feature-settings:normal;font-variant-alternates:normal;font-variant-caps:normal;font-variant-ligatures:normal;font-variant-numeric:normal;font-variant-position:normal;isolation:auto;mix-blend-mode:normal;shape-padding:0;text-decoration-color:#000000;text-decoration-line:none;text-decoration-style:solid;text-indent:0;text-orientation:mixed;text-transform:none;white-space:normal"/>
     <path d="m90.904 100.08s-0.19844 1.4469-0.83509 1.8769c-0.63665 0.42995-1.6206 0.44648-1.9182 0.16536-0.29766-0.28112-0.35553 0.0165-0.35553 0.0165l0.38861 0.39687 1.0335 0.33073 1.2072-0.47955 0.678-1.1328z" fill="#663417"/>
     <g fill="#30110b">
      <circle cx="89.553" cy="99.335" r=".23283"/>
      <circle cx="89.792" cy="99.79" r=".11707"/>
      <circle cx="89.462" cy="99.757" r=".14188"/>
      <circle cx="88.866" cy="102.3" r=".18322"/>
      <circle cx="89.222" cy="102.28" r=".11707"/>
     </g>
    </g>
    <path d="m91.906 100.16c-0.05068 2e-3 -0.10216 8e-3 -0.154 0.0176-0.41465 0.0731-0.84507 0.36502-1.2619 0.9648-0.83837 1.2062-0.55045 2.3687 0.15038 3.0468s1.8165 0.90142 2.59 0.27751c0.74452-0.60055 0.91371-1.3233 0.8847-1.881-0.02901-0.55775-0.24805-0.96686-0.24805-0.96686s-0.38807-0.71826-1.0098-1.1503c-0.27199-0.18903-0.5966-0.32617-0.95136-0.30851zm0.01292 0.26562c0.28221-0.0145 0.54753 0.0927 0.78806 0.25993 0.54979 0.3821 0.92759 1.0604 0.92759 1.0604 8.19e-4 2e-3 0.1913 0.3589 0.21704 0.8537 0.02579 0.49586-0.1066 1.113-0.78703 1.6619-0.65147 0.52549-1.6173 0.33977-2.2386-0.26148-0.62137-0.60125-0.89519-1.5874-0.11679-2.7073 0.39152-0.56331 0.75999-0.79593 1.0878-0.8537 0.04098-7e-3 0.08164-0.0114 0.12196-0.0134z" color="#000000" color-rendering="auto" dominant-baseline="auto" fill="#30110b" image-rendering="auto" shape-rendering="auto" solid-color="#000000" style="font-feature-settings:normal;font-variant-alternates:normal;font-variant-caps:normal;font-variant-ligatures:normal;font-variant-numeric:normal;font-variant-position:normal;isolation:auto;mix-blend-mode:normal;shape-padding:0;text-decoration-color:#000000;text-decoration-line:none;text-decoration-style:solid;text-indent:0;text-orientation:mixed;text-transform:none;white-space:normal"/>
   </g>
   <g transform="matrix(1.2603 0 0 1.2603 -19.272 -10.421)" stroke-width=".91547">
    <path d="m91.789 80.13c-0.48544-0.10926-1.0239-0.1194-1.5236 0.11368-0.49967 0.23308-0.94806 0.70734-1.2616 1.5174-0.31399 0.81115-0.30402 1.5024-0.08526 2.0623 0.21876 0.55998 0.63965 0.98251 1.1245 1.2826 0.48482 0.30013 1.0349 0.48056 1.5298 0.55853 0.49491 0.07797 0.93089 0.06256 1.2221-0.07538 0.27961-0.13245 0.54996-0.40736 0.7933-0.76241 0.24335-0.35506 0.45584-0.79265 0.58818-1.2554 0.13234-0.4628 0.1853-0.95223 0.10133-1.4099-0.08388-0.45713-0.31019-0.88275-0.72411-1.1937 0 0-0.79367-0.61926-1.7645-0.83779z" color="#000000" color-rendering="auto" dominant-baseline="auto" fill="#30110b" image-rendering="auto" shape-rendering="auto" solid-color="#000000" style="font-feature-settings:normal;font-variant-alternates:normal;font-variant-caps:normal;font-variant-ligatures:normal;font-variant-numeric:normal;font-variant-position:normal;isolation:auto;mix-blend-mode:normal;shape-padding:0;text-decoration-color:#000000;text-decoration-line:none;text-decoration-style:solid;text-indent:0;text-orientation:mixed;text-transform:none;white-space:normal"/>
    <path d="m91.726 80.407c0.89031 0.20039 1.6546 0.78466 1.6546 0.78466v0.0013h0.0013c0.35591 0.26681 0.54306 0.61982 0.6166 1.0207 0.07355 0.40085 0.02809 0.84916-0.09515 1.2802-0.12325 0.43101-0.32344 0.84408-0.54864 1.1727-0.2252 0.32858-0.48036 0.57047-0.68209 0.66603-0.19016 0.09007-0.59538 0.12435-1.0553 0.0519-0.45989-0.07245-0.97852-0.24276-1.4247-0.51899-0.44621-0.27623-0.81944-0.65442-1.0108-1.1442-0.19134-0.48982-0.20753-1.0976 0.0865-1.8572 0.29444-0.76067 0.69201-1.1641 1.1183-1.363 0.42628-0.19885 0.89433-0.19411 1.3395-0.09391z" color="#000000" color-rendering="auto" dominant-baseline="auto" fill="#915429" image-rendering="auto" shape-rendering="auto" solid-color="#000000" style="font-feature-settings:normal;font-variant-alternates:normal;font-variant-caps:normal;font-variant-ligatures:normal;font-variant-numeric:normal;font-variant-position:normal;isolation:auto;mix-blend-mode:normal;shape-padding:0;text-decoration-color:#000000;text-decoration-line:none;text-decoration-style:solid;text-indent:0;text-orientation:mixed;text-transform:none;white-space:normal"/>
    <g fill="#30110b">
     <circle cx="91.412" cy="81.051" r=".27201"/>
     <circle cx="90.575" cy="81.166" r=".27201"/>
     <circle cx="91.057" cy="81.762" r=".36617"/>
    </g>
    <path d="m94.181 82.447s-0.45866 2.5301-2.3229 2.4265c-1.8643-0.10357-2.6336-0.78417-2.6336-0.78417l0.84335 0.81376 0.81376 0.39948 1.1689 0.26632 0.85814-0.13316 0.78417-1.0061 0.45866-1.0949z" fill="#663417"/>
    <g fill="#30110b">
     <path d="m91.226 80.057c-0.32019-0.0092-0.6476 0.04166-0.9599 0.18734-0.49966 0.23308-0.94809 0.70726-1.2617 1.5173-0.31399 0.81115-0.30408 1.5024-0.08533 2.0623 0.21875 0.55998 0.63985 0.98246 1.1247 1.2826 0.48482 0.30013 1.0348 0.48077 1.5298 0.55874 0.4949 0.07797 0.9309 0.06241 1.2221-0.07552 0.27961-0.13245 0.54981-0.40737 0.79316-0.76242 0.24335-0.35506 0.45582-0.79265 0.58817-1.2554 0.13234-0.4628 0.18533-0.95208 0.10135-1.4098-0.08388-0.45713-0.31025-0.88274-0.72418-1.1937 0 0-0.79361-0.61942-1.7645-0.83795-0.18204-0.040975-0.37153-0.068069-0.56364-0.073565zm-0.0066 0.28378c0.16996 5e-3 0.34015 0.02912 0.50708 0.0667 0.89031 0.20039 1.6546 0.78466 1.6546 0.78466v0.0013h0.0013c0.35591 0.26681 0.54306 0.61953 0.61661 1.0204 0.07355 0.40085 0.02809 0.84929-0.09514 1.2803-0.12325 0.43101-0.32341 0.84416-0.5486 1.1727-0.2252 0.32858-0.48059 0.57042-0.68232 0.66598-0.19017 0.09008-0.59515 0.12444-1.055 0.05199-0.45989-0.07245-0.97858-0.24295-1.4248-0.51918-0.44621-0.27623-0.81956-0.65448-1.0109-1.1443s-0.2074-1.0974 0.08664-1.857c0.29444-0.76066 0.69185-1.1642 1.1181-1.363 0.26643-0.12428 0.54912-0.1689 0.83239-0.16053z" color="#000000" color-rendering="auto" dominant-baseline="auto" image-rendering="auto" shape-rendering="auto" solid-color="#000000" style="font-feature-settings:normal;font-variant-alternates:normal;font-variant-caps:normal;font-variant-ligatures:normal;font-variant-numeric:normal;font-variant-position:normal;isolation:auto;mix-blend-mode:normal;shape-padding:0;text-decoration-color:#000000;text-decoration-line:none;text-decoration-style:solid;text-indent:0;text-orientation:mixed;text-transform:none;white-space:normal"/>
     <circle cx="93.453" cy="83.819" r=".23301"/>
     <circle cx="93.217" cy="84.277" r=".14424"/>
    </g>
   </g>
  </g>
 </g>
</svg>
