<svg width="174.09" height="174.09" version="1.1" viewBox="0 0 46.060873 46.060873" xmlns="http://www.w3.org/2000/svg">
 <g transform="translate(-105.82 -70.093)">
  <circle cx="128.85" cy="93.123" r="23.03" fill="#f9f9f9"/>
  <g transform="translate(50.301 2.7472)">
   <ellipse cx="79.184" cy="93.839" rx="18.661" ry="3.012" opacity=".06"/>
   <g transform="matrix(.84514 0 0 .84514 14.878 12.873)" stroke-width="1.1832">
    <path d="m85.607 89.095s1.0181-2.5726-1.5217-3.2295c-2.5398-0.65684-2.3467-0.84531-2.8573-1.7297-0.5106-0.88438-2.1457-2.8901-3.1529-1.9705-1.0072 0.91958-3.3718 1.1823-4.6417 1.2699-1.2699 0.08758-3.4156 1.7516-3.328 3.2842 0.08759 1.5326 0.65684 0.832 0.70064 1.7516 0.04379 0.91958-0.26274 2.4522 1.0947 2.7587 1.3575 0.30653 3.1091-0.87579 4.379-0.52548s3.0653 1.664 5.0796 1.4451c2.0143-0.21895 1.9705-1.051 2.8463-1.3137 0.87579-0.26274 1.4013-1.7406 1.4013-1.7406z" fill="#915926"/>
    <path d="m80.68 85.099s-1.2042-2.1895-1.8611-1.9048c-0.65684 0.28463-2.4084 1.1166-2.5836 1.051-0.17516-0.06569-2.2333-0.21895-2.7806 0.13137s-2.3646 1.1385-2.1895 1.9486c0.17516 0.81011 1.0072 1.6859 0.65685 2.2771-0.35032 0.59116-0.21895 1.467 0.08758 1.6421 0.30653 0.17516 2.5617-0.63495 3.5907-0.4379 1.0291 0.19705 4.0724 0.8539 5.211 1.7516 1.1385 0.89769 1.8173-1.3137 2.6493-1.4013 0.832-0.08758 2.1676-2.0362 1.3137-2.8025-0.8539-0.76632-3.3061-0.78821-3.6126-1.3356s-0.48169-0.91958-0.48169-0.91958z" fill="#74431f"/>
    <g fill="#30110b">
     <circle cx="78.271" cy="84.965" r=".25113"/>
     <circle cx="76.191" cy="85.119" r=".49197"/>
     <circle cx="79.759" cy="86.334" r=".26208"/>
     <circle cx="74.494" cy="87.429" r=".8204"/>
     <circle cx="73.147" cy="88.074" r=".39345"/>
     <circle cx="83.131" cy="89.279" r=".16355"/>
     <circle cx="82.529" cy="89.651" r=".30587"/>
    </g>
   </g>
   <g transform="translate(8.9803 -5.332)">
    <path d="m67.237 91.449s-1.883-0.17516-2.4084-0.94148c-0.52548-0.76632-1.6421-0.70064-2.3208-0.35032-0.67874 0.35032-1.7078 0.35032-2.1238 0.06569-0.416-0.28463-2.0581 0.45979-1.664 1.2699 0.39411 0.81011 0.96337 1.1823 0.54737 2.08-0.416 0.89769-0.15326 1.9048 0.70064 2.299 0.8539 0.39411 1.8392 0.54737 1.9705 1.0291 0.13137 0.48168 1.467 1.4888 2.5179 1.051 1.051-0.4379 1.5545-1.9267 2.3208-2.5179 0.76632-0.59116 0.0219-1.9924 0.39411-2.4303 0.37221-0.4379 0.98527-1.467 0.06569-1.5545z" fill="#915926"/>
    <path d="m66.869 91.947s-1.8578-0.13934-2.3687-0.66572c-0.5109-0.52639-1.8114-0.72765-2.121-0.37157-0.30964 0.35608-1.4089 0.35608-1.6566 0.23223-0.24771-0.12386-1.4243-0.74314-1.285 0.26319 0.13934 1.0063 1.2076 1.6875 0.71217 2.0901-0.49542 0.40253-0.86699 1.5792 0.01548 1.9507 0.88247 0.37157 1.8269 0.12386 2.1365 0.71217 0.30964 0.58832 0.57283 1.5172 1.285 1.4708 0.71217-0.04645 1.7185-1.0218 1.8733-1.285 0.15482-0.26319 0.26319-0.88247 0.7741-1.2076s0.4335-1.3934 0.30964-1.6566c-0.12386-0.26319 1.0218-1.5637 0.32512-1.5327z" fill="#74431f"/>
    <g fill="#30110b">
     <circle cx="64.816" cy="92.136" r=".29492"/>
     <circle cx="64.849" cy="95.924" r=".1745"/>
     <circle cx="64.269" cy="96.176" r=".29492"/>
     <circle cx="61.882" cy="92.267" r=".26208"/>
     <circle cx="60.393" cy="91.84" r=".20734"/>
    </g>
   </g>
   <g transform="translate(13.751 -.98222)">
    <path d="m52.539 84.741s-1.6466-0.93729-2.8879-0.10132c-1.2413 0.83596-0.50665 1.6466-1.4186 2.6092-0.91196 0.96263-1.7479 0.7093-1.6213 1.5453 0.12666 0.83596 0.37998 5.0664 1.8239 4.1292 1.4439-0.93729 4.8891-0.96262 5.4464-0.37998 0.55731 0.58264 3.5465-2.8119 2.5586-3.4199-0.98796-0.60798-1.2919-1.3933-0.83596-1.8746 0.45598-0.48131-0.20266-2.0266-0.96263-2.0772-0.75997-0.05066-2.1026-0.43065-2.1026-0.43065z" fill="#915926"/>
    <path d="m48.321 87.717s-0.62064 0.53198-0.8993 1.0893c-0.27865 0.55731 0.24066 3.4452 0.48131 3.5338 0.24066 0.08866 1.7986-1.2033 3.0779-0.98796 1.2793 0.21532 1.9026 0.38984 3.0272 0.60797 0.64548 0.0032 2.4826-2.0519 2.0266-2.5586-0.45598-0.50664-1.8619-1.4946-0.96263-2.3306 0.8993-0.83596-1.2159-1.7353-1.8239-1.6593-0.60797 0.076-2.0139-0.92463-2.7105-0.55731-0.69664 0.36732-0.62064 1.3173-1.0513 1.7479-0.43065 0.43065-1.1653 1.1146-1.1653 1.1146z" fill="#74431f"/>
    <g fill="#30110b">
     <circle cx="53.942" cy="86.635" r=".27789"/>
     <circle cx="53.258" cy="86.42" r=".18923"/>
     <circle cx="53.372" cy="87.256" r=".40455"/>
     <circle cx="50.864" cy="86.053" r=".50588"/>
     <circle cx="48.876" cy="90.638" r=".53121"/>
     <circle cx="53.93" cy="91.271" r=".27789"/>
     <circle cx="51.726" cy="88.966" r=".27789"/>
     <circle cx="52.391" cy="89.322" r=".45522"/>
     <circle cx="48.432" cy="89.865" r=".22723"/>
    </g>
   </g>
   <g transform="translate(.65321 -6.265)">
    <path d="m80.401 94.927s-1.3005-1.2153-2.7868-0.44124c-1.4863 0.7741-1.4553-0.95988-3.0654-0.37157s-3.2822-1.5172-3.7157-0.27868c-0.4335 1.2386 2.3842 2.0746 1.5792 3.406-0.80506 1.3314-2.3842 3.0345-1.0837 3.3441s3.3131-1.703 4.335-0.92892c1.0218 0.7741 4.4278 0.65024 4.4278-0.40253 0-1.0528 1.0528-2.539 2.0127-2.601 0.95988-0.06193-1.107-1.1999-1.703-1.7262z" fill="#915926"/>
    <path d="m80.881 96.174s-1.5637-1.7495-2.6474-1.2076c-1.0837 0.54187-2.5855 0.35608-2.9416-0.04645-0.35608-0.40253-1.8114 0.29416-2.7093-0.29416-0.89796-0.58832-1.285-0.37157-0.01548 0.97536 1.2695 1.3469 0.38705 2.3687 0.04645 2.6629-0.3406 0.29416-2.7558 2.5545 0.92892 1.3469 3.6847-1.2076 1.8114 0.24771 3.8705 0.13934 2.0591-0.10837 2.0127-0.29416 2.5081-1.7959 0.49542-1.5018 1.5172-1.2502 0.95988-1.7804z" fill="#74431f"/>
    <g fill="#30110b">
     <circle cx="79.799" cy="96.566" r=".18545"/>
     <circle cx="79.692" cy="95.904" r=".30587"/>
     <circle cx="74.447" cy="96.54" r=".1745"/>
     <circle cx="74.36" cy="98.885" r=".16355"/>
     <circle cx="73.922" cy="98.918" r=".14166"/>
     <circle cx="78.794" cy="98.896" r=".30587"/>
     <circle cx="78.925" cy="96.487" r=".42629"/>
     <circle cx="75.3" cy="96.308" r=".6124"/>
    </g>
   </g>
   <g transform="translate(32.733 .94511)">
    <path d="m52.539 84.741s-1.6466-0.93729-2.8879-0.10132c-1.2413 0.83596-0.50665 1.6466-1.4186 2.6092-0.91196 0.96263-1.7479 0.7093-1.6213 1.5453 0.12666 0.83596 0.37998 5.0664 1.8239 4.1292 1.4439-0.93729 4.8891-0.96262 5.4464-0.37998 0.55731 0.58264 3.5465-2.8119 2.5586-3.4199-0.98796-0.60798-1.2919-1.3933-0.83596-1.8746 0.45598-0.48131-0.20266-2.0266-0.96263-2.0772-0.75997-0.05066-2.1026-0.43065-2.1026-0.43065z" fill="#915926"/>
    <path d="m48.321 87.717s-0.62064 0.53198-0.8993 1.0893c-0.27865 0.55731 0.24066 3.4452 0.48131 3.5338 0.24066 0.08866 1.7986-1.2033 3.0779-0.98796 1.2793 0.21532 1.9026 0.38984 3.0272 0.60797 0.64548 0.0032 2.4826-2.0519 2.0266-2.5586-0.45598-0.50664-1.8619-1.4946-0.96263-2.3306 0.8993-0.83596-1.2159-1.7353-1.8239-1.6593-0.60797 0.076-2.0139-0.92463-2.7105-0.55731-0.69664 0.36732-0.62064 1.3173-1.0513 1.7479-0.43065 0.43065-1.1653 1.1146-1.1653 1.1146z" fill="#74431f"/>
    <g fill="#30110b">
     <circle cx="53.942" cy="86.635" r=".27789"/>
     <circle cx="53.258" cy="86.42" r=".18923"/>
     <circle cx="53.372" cy="87.256" r=".40455"/>
     <circle cx="50.864" cy="86.053" r=".50588"/>
     <circle cx="48.876" cy="90.638" r=".53121"/>
     <circle cx="53.93" cy="91.271" r=".27789"/>
     <circle cx="51.726" cy="88.966" r=".27789"/>
     <circle cx="52.391" cy="89.322" r=".45522"/>
     <circle cx="48.432" cy="89.865" r=".22723"/>
    </g>
   </g>
   <g transform="rotate(149.81 65.682 93.253)">
    <path d="m67.237 91.449s-1.883-0.17516-2.4084-0.94148c-0.52548-0.76632-1.6421-0.70064-2.3208-0.35032-0.67874 0.35032-1.7078 0.35032-2.1238 0.06569-0.416-0.28463-2.0581 0.45979-1.664 1.2699 0.39411 0.81011 0.96337 1.1823 0.54737 2.08-0.416 0.89769-0.15326 1.9048 0.70064 2.299 0.8539 0.39411 1.8392 0.54737 1.9705 1.0291 0.13137 0.48168 1.467 1.4888 2.5179 1.051 1.051-0.4379 1.5545-1.9267 2.3208-2.5179 0.76632-0.59116 0.0219-1.9924 0.39411-2.4303 0.37221-0.4379 0.98527-1.467 0.06569-1.5545z" fill="#915926"/>
    <path d="m66.869 91.947s-1.8578-0.13934-2.3687-0.66572c-0.5109-0.52639-1.8114-0.72765-2.121-0.37157-0.30964 0.35608-1.4089 0.35608-1.6566 0.23223-0.24771-0.12386-1.4243-0.74314-1.285 0.26319 0.13934 1.0063 1.2076 1.6875 0.71217 2.0901-0.49542 0.40253-0.86699 1.5792 0.01548 1.9507 0.88247 0.37157 1.8269 0.12386 2.1365 0.71217 0.30964 0.58832 0.57283 1.5172 1.285 1.4708 0.71217-0.04645 1.7185-1.0218 1.8733-1.285 0.15482-0.26319 0.26319-0.88247 0.7741-1.2076s0.4335-1.3934 0.30964-1.6566c-0.12386-0.26319 1.0218-1.5637 0.32512-1.5327z" fill="#74431f"/>
    <g fill="#30110b">
     <circle cx="64.816" cy="92.136" r=".29492"/>
     <circle cx="64.849" cy="95.924" r=".1745"/>
     <circle cx="64.269" cy="96.176" r=".29492"/>
     <circle cx="61.882" cy="92.267" r=".26208"/>
     <circle cx="60.393" cy="91.84" r=".20734"/>
    </g>
   </g>
   <g transform="translate(28.541 8.9448)">
    <path d="m66.007 84.391s0.98902-1.4373-0.23709-1.8752c-1.2261-0.4379-2.3646-0.87579-1.9267-1.7516 0.4379-0.87579-2.3208-0.26274-3.0653-0.08758-0.74443 0.17516-2.5836 1.4888-2.2333 1.883 0.35032 0.39411 0.78822 1.5545 0.48169 2.3646-0.30653 0.81011 0.30653 1.4451 1.248 1.4888 0.94148 0.04379 2.5179-1.8392 4.0286-1.3794 0.71413 0.22191 1.2996-0.0198 1.704-0.64269z" fill="#915926"/>
    <path d="m65.759 82.975s-2.5398-0.96337-2.3865-1.5655c0.15326-0.60211 0.06569-0.86484-0.2299-0.78821-0.29558 0.07663-1.6968 0.18611-2.2114 0.49263-0.51453 0.30653-2.08 0.95242-1.8392 1.3246 0.24084 0.37221 0.56927 1.2152 0.45979 1.7078s-0.33937 1.3027-0.04379 1.4998c0.29558 0.19705 0.48169 0.71158 1.6968 0.03284 1.2152-0.67874 2.2004-1.3246 3.339-1.0619 1.1385 0.26274 2.0581-1.3794 1.2152-1.6421z" fill="#74431f"/>
    <g fill="#30110b">
     <circle cx="64.947" cy="83.497" r=".22924"/>
     <circle cx="64.399" cy="83.092" r=".24018"/>
     <circle cx="60.513" cy="82.117" r=".24018"/>
     <circle cx="60.13" cy="83.934" r=".29492"/>
     <circle cx="60.787" cy="84.526" r=".53576"/>
     <circle cx="64.279" cy="83.748" r=".29492"/>
    </g>
   </g>
   <g stroke-width="2.0485">
    <g transform="matrix(.48816 0 0 .48816 58.916 48.403)">
     <path d="m66.007 84.391s0.98902-1.4373-0.23709-1.8752c-1.2261-0.4379-2.3646-0.87579-1.9267-1.7516 0.4379-0.87579-2.3208-0.26274-3.0653-0.08758-0.74443 0.17516-2.5836 1.4888-2.2333 1.883 0.35032 0.39411 0.78822 1.5545 0.48169 2.3646-0.30653 0.81011 0.30653 1.4451 1.248 1.4888 0.94148 0.04379 2.5179-1.8392 4.0286-1.3794 0.71413 0.22191 1.2996-0.0198 1.704-0.64269z" fill="#915926"/>
     <path d="m65.759 82.975s-2.5398-0.96337-2.3865-1.5655c0.15326-0.60211 0.06569-0.86484-0.2299-0.78821-0.29558 0.07663-1.6968 0.18611-2.2114 0.49263-0.51453 0.30653-2.08 0.95242-1.8392 1.3246 0.24084 0.37221 0.56927 1.2152 0.45979 1.7078s-0.33937 1.3027-0.04379 1.4998c0.29558 0.19705 0.48169 0.71158 1.6968 0.03284 1.2152-0.67874 2.2004-1.3246 3.339-1.0619 1.1385 0.26274 2.0581-1.3794 1.2152-1.6421z" fill="#74431f"/>
     <g fill="#30110b">
      <circle cx="64.947" cy="83.497" r=".22924"/>
      <circle cx="64.399" cy="83.092" r=".24018"/>
      <circle cx="60.513" cy="82.117" r=".24018"/>
      <circle cx="60.13" cy="83.934" r=".29492"/>
      <circle cx="60.787" cy="84.526" r=".53576"/>
      <circle cx="64.279" cy="83.748" r=".29492"/>
     </g>
    </g>
    <g transform="matrix(.48816 0 0 .48816 54.248 55.443)">
     <path d="m66.007 84.391s0.98902-1.4373-0.23709-1.8752c-1.2261-0.4379-2.3646-0.87579-1.9267-1.7516 0.4379-0.87579-2.3208-0.26274-3.0653-0.08758-0.74443 0.17516-2.5836 1.4888-2.2333 1.883 0.35032 0.39411 0.78822 1.5545 0.48169 2.3646-0.30653 0.81011 0.30653 1.4451 1.248 1.4888 0.94148 0.04379 2.5179-1.8392 4.0286-1.3794 0.71413 0.22191 1.2996-0.0198 1.704-0.64269z" fill="#915926"/>
     <path d="m65.759 82.975s-2.5398-0.96337-2.3865-1.5655c0.15326-0.60211 0.06569-0.86484-0.2299-0.78821-0.29558 0.07663-1.6968 0.18611-2.2114 0.49263-0.51453 0.30653-2.08 0.95242-1.8392 1.3246 0.24084 0.37221 0.56927 1.2152 0.45979 1.7078s-0.33937 1.3027-0.04379 1.4998c0.29558 0.19705 0.48169 0.71158 1.6968 0.03284 1.2152-0.67874 2.2004-1.3246 3.339-1.0619 1.1385 0.26274 2.0581-1.3794 1.2152-1.6421z" fill="#74431f"/>
     <g fill="#30110b">
      <circle cx="64.947" cy="83.497" r=".22924"/>
      <circle cx="64.399" cy="83.092" r=".24018"/>
      <circle cx="60.513" cy="82.117" r=".24018"/>
      <circle cx="60.13" cy="83.934" r=".29492"/>
      <circle cx="60.787" cy="84.526" r=".53576"/>
      <circle cx="64.279" cy="83.748" r=".29492"/>
     </g>
    </g>
    <g transform="matrix(.48816 0 0 .48816 41.089 55.852)">
     <path d="m66.007 84.391s0.98902-1.4373-0.23709-1.8752c-1.2261-0.4379-2.3646-0.87579-1.9267-1.7516 0.4379-0.87579-2.3208-0.26274-3.0653-0.08758-0.74443 0.17516-2.5836 1.4888-2.2333 1.883 0.35032 0.39411 0.78822 1.5545 0.48169 2.3646-0.30653 0.81011 0.30653 1.4451 1.248 1.4888 0.94148 0.04379 2.5179-1.8392 4.0286-1.3794 0.71413 0.22191 1.2996-0.0198 1.704-0.64269z" fill="#915926"/>
     <path d="m65.759 82.975s-2.5398-0.96337-2.3865-1.5655c0.15326-0.60211 0.06569-0.86484-0.2299-0.78821-0.29558 0.07663-1.6968 0.18611-2.2114 0.49263-0.51453 0.30653-2.08 0.95242-1.8392 1.3246 0.24084 0.37221 0.56927 1.2152 0.45979 1.7078s-0.33937 1.3027-0.04379 1.4998c0.29558 0.19705 0.48169 0.71158 1.6968 0.03284 1.2152-0.67874 2.2004-1.3246 3.339-1.0619 1.1385 0.26274 2.0581-1.3794 1.2152-1.6421z" fill="#74431f"/>
     <g fill="#30110b">
      <circle cx="64.947" cy="83.497" r=".22924"/>
      <circle cx="64.399" cy="83.092" r=".24018"/>
      <circle cx="60.513" cy="82.117" r=".24018"/>
      <circle cx="60.13" cy="83.934" r=".29492"/>
      <circle cx="60.787" cy="84.526" r=".53576"/>
      <circle cx="64.279" cy="83.748" r=".29492"/>
     </g>
    </g>
    <g transform="matrix(.48816 0 0 .48816 30.685 54.435)">
     <path d="m66.007 84.391s0.98902-1.4373-0.23709-1.8752c-1.2261-0.4379-2.3646-0.87579-1.9267-1.7516 0.4379-0.87579-2.3208-0.26274-3.0653-0.08758-0.74443 0.17516-2.5836 1.4888-2.2333 1.883 0.35032 0.39411 0.78822 1.5545 0.48169 2.3646-0.30653 0.81011 0.30653 1.4451 1.248 1.4888 0.94148 0.04379 2.5179-1.8392 4.0286-1.3794 0.71413 0.22191 1.2996-0.0198 1.704-0.64269z" fill="#915926"/>
     <path d="m65.759 82.975s-2.5398-0.96337-2.3865-1.5655c0.15326-0.60211 0.06569-0.86484-0.2299-0.78821-0.29558 0.07663-1.6968 0.18611-2.2114 0.49263-0.51453 0.30653-2.08 0.95242-1.8392 1.3246 0.24084 0.37221 0.56927 1.2152 0.45979 1.7078s-0.33937 1.3027-0.04379 1.4998c0.29558 0.19705 0.48169 0.71158 1.6968 0.03284 1.2152-0.67874 2.2004-1.3246 3.339-1.0619 1.1385 0.26274 2.0581-1.3794 1.2152-1.6421z" fill="#74431f"/>
     <g fill="#30110b">
      <circle cx="64.947" cy="83.497" r=".22924"/>
      <circle cx="64.399" cy="83.092" r=".24018"/>
      <circle cx="60.513" cy="82.117" r=".24018"/>
      <circle cx="60.13" cy="83.934" r=".29492"/>
      <circle cx="60.787" cy="84.526" r=".53576"/>
      <circle cx="64.279" cy="83.748" r=".29492"/>
     </g>
    </g>
   </g>
   <g>
    <ellipse cx="85.399" cy="97.527" rx="2.3854" ry=".85359" opacity=".06"/>
    <ellipse cx="72.49" cy="97.784" rx="2.3854" ry=".85359" opacity=".06"/>
    <ellipse cx="61.779" cy="96.381" rx="2.3854" ry=".85359" opacity=".06"/>
   </g>
  </g>
 </g>
</svg>
