<svg width="174.09" height="174.09" version="1.1" viewBox="0 0 46.060873 46.060873" xmlns="http://www.w3.org/2000/svg">
 <g transform="translate(-105.82 -70.093)">
  <circle cx="128.85" cy="93.123" r="23.03" fill="#f9f9f9"/>
  <g transform="matrix(.86892 0 0 .86892 60.294 .43203)" stroke-width="1.1508">
   <g fill="#915926">
    <path d="m85.984 108.44s0.8419-1.1225 2.4789-1.0758c1.637 0.0468 3.5547-0.56126 3.9756-2.058 0.42095-1.4967 2.1047-0.28064 2.8999-2.7596 0.79513-2.4789 0-5.4256-1.7306-5.5191-1.7306-0.09354-2.666-0.14032-3.695-1.1225-1.029-0.98222-5.4723-2.3854-7.7174-1.3564-2.2451 1.029-4.8643 0.23386-5.0046 2.1983-0.14032 1.9644-0.09354 1.9644-0.09354 1.9644s-0.88867-1.4032-3.5079-1.6838c-2.6192-0.28063-4.3966-1.3564-5.4256 0.42095-1.029 1.7773-3.7885 1.3564-4.303 1.2161-0.51449-0.14032-2.7128-1.637-3.6482 0-0.93544 1.637 1.7773 4.4434 1.4967 5.7062-0.28063 1.2628 1.2628 6.1272 3.274 5.4723 2.0112-0.65481 5.2853-1.1693 6.8287 0.0935 1.5435 1.2628 5.3788-1.2628 5.753-0.74835 0.37418 0.51449-4.8643 3.9289-1.1225 6.1272 3.7418 2.1983 3.2741 1.1693 4.6304 3.2273 1.3564 2.058 6.2675-1.6838 7.4835-1.1225 1.2161 0.56126 5.1449 0.56126 6.2675-0.74835 1.1225-1.3096-1.1225-3.4144 0.04677-3.7418 1.1693-0.32741 1.8709-1.8241 0.88867-2.1515-0.98222-0.3274-3.3676-0.14032-3.4611-1.0758-0.09354-0.93544-6.3142-1.2628-6.3142-1.2628z"/>
    <path d="m72.186 113.21s-1.029-1.9176-2.1983-1.1693c-1.1693 0.74835-3.1337 1.4032-3.5547 0.88867-0.42095-0.51449-3.8353 1.7773-2.3386 2.3854 1.4967 0.60804 4.5837 0.8419 5.5191 2.5257 0.93544 1.6838 3.2273-0.70158 4.3498-0.74836 1.1225-0.0468 1.4967-1.2628 0.32741-1.5435-1.1693-0.28063-2.1047-2.3386-2.1047-2.3386z"/>
    <path d="m97.583 107.13c-0.74835-0.65481-1.3096-0.60804-1.3096-0.88867s-0.93544-1.4032-2.3854-0.0468c-1.4499 1.3564 0.09354 1.1225 0.42095 2.058 0.3274 0.93545 2.058 1.5435 2.5257 0.93545 0.61147-0.72021 1.2616-1.5673 0.74835-2.058z"/>
   </g>
   <g fill="#74431f">
    <path d="m92.012 104.77s-0.88162 1.4996-3.9243 1.9626c-3.0427 0.46302-3.2081 2.0505-2.6458 2.249 0.56224 0.19843 4.1672 0.16536 5.2586 0.85989 1.0914 0.69453 2.4805 1.9844 3.8365 1.7198 1.356-0.26458 0.09922 0.0992-0.49609 1.0914-0.59531 0.99219 0.79375 1.1576 0.52917 2.7781-0.26458 1.6206-4.2333 1.9844-4.7294 1.7859-0.49609-0.19843-1.9844-0.82682-2.9435-0.19843-0.95911 0.62838-4.2995 1.9844-4.8286 0.99218-0.52917-0.99218-4.6302-3.2081-5.6224-3.7372-0.99219-0.52916 1.1245-3.638 1.9182-4.3326s0.52917-3.0427-1.5214-2.1167c-2.0505 0.92605-3.638 2.5797-4.8948 1.3891-1.2568-1.1906-4.7625-1.6536-5.8539-0.89297s-3.2081-0.4961-3.2411-3.9688c-0.03307-3.4727-1.9844-3.5719-1.7529-4.101 0.23151-0.52917-0.99219-1.8521 1.7198-0.99219 2.712 0.85989 6.2508-0.19844 6.9453-1.5544s6.8461 1.2568 7.4414 2.1828c0.59531 0.92605 0.09922-3.175 0.95912-3.4065 0.8599-0.23151 5.457-0.59531 5.8539-1.1906 0.39688-0.59531 4.1341 0.09922 5.1594 0.99219 1.0253 0.89297 3.9357 1.3229 4.4648 1.7529 0.52917 0.42995 1.8852 1.5214 0.42995 3.7042-1.4552 2.1828-2.0619 3.0314-2.0619 3.0314z"/>
    <path d="m97.338 107.41s-0.70158-0.68404-1.2745-0.87113-0.19878-0.59634-0.79513-0.58465c-0.59634 0.0117-1.9527 0.8302-1.3564 1.181 0.59634 0.35079 0.92375 1.029 0.95298 1.257 0.12278 0.19878 1.0699 0.87113 1.3622 0.74251 0.29233-0.12863 1.5318-1.3622 1.1108-1.7247z"/>
    <path d="m73.004 115.58s1.333 0.0877 0.56127 0.60219c-0.77174 0.51449-3.2974 2.3854-3.4378 1.2862-0.14032-1.0991-2.97-2.0346-4.0926-2.2684-1.1225-0.23386-2.0814-1.0056 0.88867-1.333 2.97-0.32741 3.1104-1.9177 3.7418-1.2862 0.63143 0.63142 1.7773 1.8007 1.5201 2.362-0.25725 0.56127 0.81851 0.63728 0.81851 0.63728z"/>
   </g>
   <path d="m90.965 102.03s-3.0402-0.42095-1.8007 0.56126c1.2395 0.98222 1.8007-0.56126 1.8007-0.56126z" fill="#915926"/>
   <path d="m81.119 99.667c-1.2395 0.46772-2.9466 0.60804-1.6136-0.46772 1.333-1.0758 2.6426-1.2862 3.0402-0.07016 0.39756 1.2161 0.1637 3.0402-0.35079 2.1515s-0.95883-0.98222-1.4499-0.60804c-0.49111 0.37418-1.0524-0.23386-0.04677-0.51449 1.0056-0.28064 1.5903-0.98222 1.0758-0.86529-0.51449 0.11693-0.65481 0.37418-0.65481 0.37418z" fill="#30110b"/>
   <path d="m82.499 97.001c-0.58465 0.39756-0.09354 1.0758-1.2395 0.42095-1.1459-0.65481-0.30402-0.42095 0.60804-0.65481 0.91206-0.23386 0.63142 0.23386 0.63142 0.23386z" fill="#30110b"/>
   <path d="m75.483 101.28s-1.6136-1.3096-3.4144-0.39756c-1.8007 0.91206-0.98222 2.6426 0.32741 2.0112 1.3096-0.63142 0.8419 0.23386 2.8063 0.30402 1.9644 0.0702 2.5725-0.21048 1.5669-0.93544-1.0056-0.72497-1.2862-0.98222-1.2862-0.98222z" fill="#915926"/>
   <path d="m72.911 101.37s-1.029 0.53788-0.58465 0.72497c0.44433 0.18708 1.6136 0.35078 1.2862-0.0702-0.3274-0.42095-0.70158-0.65481-0.70158-0.65481z" fill="#74431f"/>
   <g fill="#30110b">
    <path d="m75.624 105.98s1.2395 2.3386-1.3798 1.7072c-2.6192-0.63143-0.37418-0.77174 0.1637-1.2628 0.53788-0.49111 1.1693-1.4032 1.2161-0.44434z"/>
    <path d="m68.023 104.91s-1.2862 1.3798-2.058 0.11693c-0.77174-1.2628-0.74836-2.6426 1.3798-1.2395 2.1281 1.4032 0.6782 1.1225 0.6782 1.1225z"/>
    <path d="m64.539 101.79s-2.7362-0.0468-1.8943-0.77175c0.8419-0.72497 2.4789-0.46772 2.2217 0.14032-0.25725 0.60804-0.3274 0.63143-0.3274 0.63143z"/>
    <path d="m66.503 101.75s-0.81851-0.86528-0.88867-0.35079c-0.07016 0.5145 0.6782 0.79513 0.88867 0.35079z"/>
   </g>
   <path d="m84.931 111.66s-1.3564 1.6136-1.9644 0.86529c-0.60804-0.74836-1.4499 2.2451 0.35079 1.7306 1.8007-0.5145 4.0692-2.2217 2.9466-2.6192-1.1225-0.39757-1.333 0.0234-1.333 0.0234z" fill="#915926"/>
   <g fill="#30110b">
    <path d="m93 115.08s-2.666-0.79512-1.8007 0.1637c0.86528 0.95883 3.7652 0.39757 1.8007-0.1637z"/>
    <path d="m90.053 115.45s-2.3152-0.63143-1.1459 0.25724c1.1693 0.88868 2.1749 0.74836 1.1459-0.25724z"/>
    <path d="m83.64 109.99s-0.61185 0.7276-1.2898 0.16537c-0.678-0.56224 0.04961-1.7529 0.84336-1.0418 0.79375 0.71107 0.44648 0.87643 0.44648 0.87643z"/>
    <path d="m95.265 106.55c-0.16536-0.0165-0.92604 0.28112-0.44648 0.33073 0.47956 0.0496 0.69453-0.36381 0.44648-0.33073z"/>
    <path d="m91.129 99.901s-2.1281 1.1225-0.30402 1.333c1.8241 0.21047 1.637-2.1281 0.30402-1.333z"/>
    <path d="m70.292 113.6s-1.3564 0.35079-0.88867 0.6782c0.46772 0.3274 1.4266 1.1225 1.5669 0.30401 0.14032-0.81851-0.21047-1.0758-0.6782-0.98221z"/>
    <path d="m71.625 116.43s-1.1693-0.4911-1.0758-0.21047c0.09354 0.28063 0.14032 0.77174 0.60804 0.74835 0.46772-0.0234 0.72497-0.3274 0.46772-0.53788z"/>
   </g>
  </g>
 </g>
</svg>
