<svg width="470.67" height="649.67" version="1.1" viewBox="0 0 124.53272 171.89317" xmlns="http://www.w3.org/2000/svg">
 <g transform="translate(26.612 -153.24)">
  <g>
   <path d="m16.478 262.11v20.972h-2.4185c-0.0854 0.92926-0.12827 1.8626-0.12844 2.7965-2e-6 11.47 5.6488 21.326 14.336 25.673-4.2223 3.128-6.7312 8.0566-6.7761 13.311h33.477c-0.0412-5.2008-2.4969-10.087-6.6456-13.224 8.6829-4.3024 14.206-14.214 14.206-25.76-0.0087-0.9344-0.06023-1.8677-0.15426-2.7965h-2.3926v-20.972z" fill="#ccc"/>
   <g fill="#823f21">
    <path d="m12.255 280.47h51.71c1.5915 0 2.8728 1.2813 2.8728 2.8728 0 1.5915-1.2813 2.8728-2.8728 2.8728h-51.71c-1.5915 0-2.8728-1.2813-2.8728-2.8728 0-1.5915 1.2813-2.8728 2.8728-2.8728z"/>
    <path d="m66.804 282.92c0.0091 0.0628 0.01668 0.12624 0.02251 0.19003-0.0051-0.0641-0.01336-0.12718-0.02251-0.19003z"/>
    <path d="m9.4159 282.92c-0.00914 0.0628-0.01747 0.12593-0.022511 0.19003 0.00582-0.0638 0.013376-0.12725 0.022511-0.19003z"/>
    <path d="m9.3934 283.57c0.00504 0.0641 0.013366 0.12718 0.022511 0.18999-0.00913-0.0627-0.016691-0.12623-0.022511-0.18999z"/>
   </g>
   <path d="m9.4159 283.76c0.20241 1.3907 1.3903 2.4529 2.8389 2.4529h51.71c1.4485 0 2.6365-1.0622 2.8389-2.4529z" fill="#602c13"/>
   <path d="m66.804 283.76c0.0092-0.0628 0.01746-0.12592 0.02251-0.18999-0.0058 0.0638-0.01339 0.12725-0.02251 0.18999z" fill="#823f21"/>
   <path d="m9.4159 282.92c-0.019982 0.13729-0.033765 0.27677-0.033765 0.41975 0 0.14301 0.013782 0.28246 0.033765 0.41974h57.388c0.02-0.13728 0.03376-0.27673 0.03376-0.41974 0-0.14298-0.0138-0.28246-0.03376-0.41975z" fill="#5a2609"/>
   <rect x="17.305" y="260.04" width="41.85" height="20.423" ry="6.737" fill="#ecb48a"/>
   <rect x="15.595" y="227.37" width="45.268" height="45.782" ry="0" fill="#008080"/>
   <path d="m13.936 286.21c0.0065 0.68532 0.03246 1.3645 0.07878 2.0371h48.432c0.04475-0.67265 0.06985-1.3518 0.07614-2.0371z" opacity=".154"/>
   <rect x="34.04" y="286.21" width="4.1893" height="30.378" opacity=".154"/>
   <rect x="19.193" y="271.21" width="14.8" height="50.426" ry="7.4002" fill="#efc59e"/>
   <path d="m18.893 314.89-3.979 4.9027v1.1403h23.358v-3.318h-1.7152v0.0646l-2.2639-2.7894z" fill="#482d24"/>
   <path d="m14.914 313.93v0.87027h1.1914l-1.1914 1.8587v1.4437h23.358v-1.4437l-1.7493-2.729h-19.86z" fill="#604135"/>
   <path d="m20.661 317.17c-2.0666 0-3.7306 1.6641-3.7306 3.7306v3.0901c0 0.48282 0.38841 0.87124 0.87123 0.87124h17.583c0.48282 0 0.87123-0.38842 0.87123-0.87124v-3.0901c0-2.0666-1.664-3.7306-3.7306-3.7306z" fill="#823f21"/>
   <path d="m16.93 322.08v1.9128c0 0.4828 0.38836 0.87119 0.87118 0.87119h17.583c0.48282 0 0.87118-0.38839 0.87118-0.87119v-1.9128z" fill="#5a280d"/>
   <rect transform="scale(-1,1)" x="-57.266" y="271.21" width="14.8" height="50.426" ry="7.4002" fill="#efc59e"/>
   <path d="m57.566 314.89 3.979 4.9027v1.1403h-23.358v-3.318h1.7152v0.0646l2.2639-2.7894z" fill="#482d24"/>
   <path d="m61.545 313.93v0.87027h-1.1914l1.1914 1.8587v1.4437h-23.358v-1.4437l1.7493-2.729h19.86z" fill="#604135"/>
   <path d="m55.798 317.17c2.0666 0 3.7306 1.6641 3.7306 3.7306v3.0901c0 0.48282-0.38841 0.87124-0.87123 0.87124h-17.583c-0.48282 0-0.87123-0.38842-0.87123-0.87124v-3.0901c0-2.0666 1.664-3.7306 3.7306-3.7306z" fill="#823f21"/>
   <path d="m59.529 322.08v1.9128c0 0.4828-0.38836 0.87119-0.87118 0.87119h-17.583c-0.48282 0-0.87118-0.38839-0.87118-0.87119v-1.9128z" fill="#5a280d"/>
   <path d="m14.733 236.97c-3.3401 0-6.0293 2.6892-6.0293 6.0293v21.378c0 3.3401 2.6892 6.0293 6.0293 6.0293h15.267c3.3401 0 6.0286-2.6892 6.0286-6.0293 0-3.3401-2.6885-6.0286-6.0286-6.0286h-9.2374v-15.349c0-3.3401-2.6892-6.0293-6.0293-6.0293z" fill="#efc59e"/>
   <g fill="#d09a78">
    <rect x="26.965" y="260.41" width=".82187" height="8.0965" ry=".41094"/>
    <rect x="22.043" y="260.41" width=".82187" height="8.0965" ry=".41094"/>
    <rect x="17.12" y="260.41" width=".82187" height="8.0965" ry=".41094"/>
   </g>
   <path d="m61.726 236.97c3.3401 0 6.0293 2.6892 6.0293 6.0293v21.378c0 3.3401-2.6892 6.0293-6.0293 6.0293h-15.267c-3.3401 0-6.0286-2.6892-6.0286-6.0293 0-3.3401 2.6885-6.0286 6.0286-6.0286h9.2374v-15.349c0-3.3401 2.6892-6.0293 6.0293-6.0293z" fill="#efc59e"/>
   <g fill="#d09a78">
    <rect transform="scale(-1,1)" x="-49.494" y="260.41" width=".82187" height="8.0965" ry=".41094"/>
    <rect transform="scale(-1,1)" x="-54.416" y="260.41" width=".82187" height="8.0965" ry=".41094"/>
    <rect transform="scale(-1,1)" x="-59.339" y="260.41" width=".82187" height="8.0965" ry=".41094"/>
   </g>
   <path d="m24.164 218.5c-8.5647 0-15.46 6.8954-15.46 15.46v9.0442h59.051v-9.0442c0-8.5647-6.8954-15.46-15.46-15.46z" fill="#008080"/>
   <path d="m78.78 153.5a18.875 18.875 0 0 0 -18.875 18.876 18.875 18.875 0 0 0 0.45416 4.0061 5.6777 5.6777 0 0 0 -4.2854 5.499 5.6777 5.6777 0 0 0 5.6777 5.6777 5.6777 5.6777 0 0 0 3.9511 -1.6008 18.875 18.875 0 0 0 13.077 5.2931 18.875 18.875 0 0 0 18.876 -18.875 18.875 18.875 0 0 0 -18.876 -18.876z" fill="#e6e6e6"/>
   <path d="m86.045 166.93q0 1.4065-0.50233 2.5117-0.50233 1.0908-1.3204 1.9376-0.80373 0.81807-1.8515 1.5357-1.0477 0.71761-2.2246 1.3922v3.2293h-2.5691v-4.3775q0.9329-0.53105 2.0093-1.1625 1.0908-0.63151 1.7797-1.2774 0.83243-0.74633 1.2917-1.5357 0.45927-0.80374 0.45927-2.038 0-1.6218-1.1051-2.4112-1.0908-0.80373-2.8274-0.80373-1.55 0-2.9422 0.48798-1.3778 0.48798-2.1816 0.99032h-0.14353v-2.9279q1.0047-0.38752 2.5404-0.68892 1.5501-0.31573 2.9279-0.31573 3.0858 0 4.8654 1.507 1.794 1.4926 1.794 3.9469zm-5.6692 16.347h-2.9279v-3.0284h2.9279z" fill="#333"/>
   <path d="m24.058 201.87c0.91547 0 1.144 0.73701 1.144 1.6525v4.1736c0 0.91548-0.22855 1.6525-1.144 1.6525-0.91547 0-1.6525-0.73701-1.6525-1.6525v-4.1736c0-0.91546 0.737-1.6525 1.6525-1.6525z" fill="#efc59e"/>
   <path d="m52.401 201.87c-0.91547 0-1.144 0.73701-1.144 1.6525v4.1736c0 0.91548 0.22855 1.6525 1.144 1.6525 0.91547 0 1.6525-0.73701 1.6525-1.6525v-4.1736c0-0.91546-0.737-1.6525-1.6525-1.6525z" fill="#efc59e"/>
   <rect x="24.058" y="189.22" width="28.343" height="39.069" ry="11.271" fill="#813e21"/>
   <path d="m28.855 195.15h18.75c1.7799 0 3.2128 1.4329 3.2128 3.2128v13.684c0 1.7799-1.4329 3.2128-3.2128 3.2128h-18.75c-1.7799 0-3.2128-1.4329-3.2128-3.2128v-13.684c0-1.7799 1.4329-3.2128 3.2128-3.2128z" fill="#efc59e"/>
   <rect x="29.635" y="216.57" width="17.19" height="4.5162" ry="2.2581" fill="#efc59e"/>
   <g fill="#6a331b">
    <rect x="34.91" y="218.53" width="6.6388" height=".58291" ry=".29146"/>
    <circle transform="scale(-1,1)" cx="-45.059" cy="206.09" r="1.0476"/>
    <rect transform="scale(-1,1)" x="-49.106" y="204.73" width="8.1584" height="1.1745" ry=".30881"/>
   </g>
   <path d="m50.502 201.57c1.391 0 1.0907 1.1195 1.0907 2.5105 0 4e-3 -6.87e-4 7e-3 -7.02e-4 0.0109h-12.769c-1.5e-5 -4e-3 -7e-4 -7e-3 -7e-4 -0.0109 0-1.391 1.1195-2.5105 2.5105-2.5105z" fill="#813e21"/>
   <circle cx="31.301" cy="206.09" r="1.0476" fill="#6a331b"/>
   <rect x="27.254" y="204.73" width="8.1584" height="1.1745" ry=".30881" fill="#6a331b"/>
   <path d="m25.859 201.57c-1.391 0-1.0907 1.1195-1.0907 2.5105 0 4e-3 6.87e-4 7e-3 7.02e-4 0.0109h12.769c1.5e-5 -4e-3 7e-4 -7e-3 7e-4 -0.0109 0-1.391-1.1195-2.5105-2.5105-2.5105z" fill="#813e21"/>
   <path d="m36.342 212.05 1.8877 1.8877 1.8877-1.8877z" fill="#6a331b"/>
   <path d="m-22.638 249.68h20.787v13.559h-20.787z" fill="#ececec"/>
   <path d="m-22.638 256.46v6.7794h20.787v-6.7794z" fill="#ccc"/>
   <path d="m-0.67363 254.97v0.74467h-1.1775v1.4894h1.1775v0.74468h2.5319v-2.9787z" fill="#823f21"/>
   <path d="m-1.8511 256.46v0.74468h1.1775v0.74468h2.5319v-1.4894z" fill="#602c13"/>
   <path d="m-23.816 254.97v0.74467h1.1775v1.4894h-1.1775v0.74468h-2.5319v-2.9787z" fill="#823f21"/>
   <path d="m-22.638 256.46v0.74468h-1.1775v0.74468h-2.5319v-1.4894z" fill="#602c13"/>
   <path d="m-22.639 264.85v8.9827l0.02317-0.0231 1.8875 1.8875 1.8875-1.8875 1.8882 1.8875 1.8875-1.8875 1.8875 1.8875 1.8875-1.8875 1.8882 1.8875 1.8875-1.8875 1.8875 1.8875 1.8875-1.8875 1.8882 1.8875v-10.847z" fill="#ececec"/>
   <path d="m30.727 186.77h17.997c3.2778 0 5.9167 2.6388 5.9167 5.9167s-2.6388 5.9167-5.9167 5.9167h-17.997c-3.2778 0-5.9167-2.6388-5.9167-5.9167s2.6388-5.9167 5.9167-5.9167z" fill="#813e21"/>
  </g>
 </g>
</svg>
