<svg width="174.09" height="174.09" version="1.1" viewBox="0 0 46.060873 46.060873" xmlns="http://www.w3.org/2000/svg">
 <g transform="translate(-105.82 -70.093)">
  <circle cx="128.85" cy="93.123" r="23.03" fill="#f9f9f9"/>
  <g transform="matrix(.90901 0 0 .90901 55.393 -7.1972)" stroke-width="1.1001">
   <g>
    <ellipse cx="82.224" cy="115.53" rx="21.2" ry="2.1167" opacity=".128"/>
    <path d="m83.465 103.34c1.1196-0.0116 1.7116 0.59729 2.0505 1.2252 0.33896 0.62796 0.39946 1.2625 0.39946 1.2625l5.17e-4 6e-3 1e-3 5e-3s0.03042 0.16934 0.04134 0.4284l0.01085 0.24856 0.19999-0.14779c1.4061-1.0374 2.9485-0.82584 4.1636-0.34933 1.2079 0.47371 2.0596 1.2022 2.0696 1.2108 4e-3 4e-3 0.18751 0.20496 0.416 0.53899l0.07131 0.10439 0.10749-0.0672c1.3754-0.85706 2.8566-0.60278 4.0127-0.12609 1.1483 0.47348 1.9462 1.1561 1.957 1.1653 0.0069 8e-3 1.2505 1.3748 1.2035 2.7823-0.0222 0.66737-0.65889 1.3763-1.679 1.8924s-2.4038 0.83554-3.8458 0.76223c-0.52197-0.0265-1.0313-0.14844-1.4971-0.34572l-0.15503-0.0656-0.02739 0.16588c-0.05034 0.30475-0.16913 0.63755-0.36949 0.99736-0.12006 0.13559-0.41827 0.26071-0.82166 0.32918-0.40741 0.0691-0.91219 0.0916-1.4289 0.0785-1.0333-0.026-2.1266-0.19885-2.5807-0.37724-0.21629-0.085-0.38753-0.25624-0.49196-0.49661l-0.05219-0.12041-0.12092 0.0512c-0.46849 0.19922-1.2007 0.21541-1.8795 0.15348-0.67881-0.0619-1.3076-0.19576-1.587-0.26562-0.27649-0.0691-0.87662-0.3509-1.3777-0.74155l-0.14159-0.11059-0.06356 0.16846c-0.18261 0.48593-0.66344 0.84396-1.3477 1.0945s-1.5609 0.38789-2.4872 0.44545c-1.8526 0.11513-3.9061-0.0874-5.056-0.28938-0.39916-0.0701-0.76719-0.19981-1.0919-0.37569l-0.07286-0.0393-0.06718 0.0481c-1.0276 0.73356-2.7157 1.2439-4.4943 1.1534-1.054-0.0536-2.0566-0.49346-2.7476-1.1643-0.691-0.67082-1.0715-1.5627-0.90537-2.5482l0.04444-0.26096-0.23513 0.12092c-0.62564 0.32271-1.4235 0.57964-2.313 0.7307-1.2601 0.21399-2.1256-0.46418-2.5471-1.3606-0.42152-0.89646-0.36406-1.9965 0.22841-2.589 1.2203-1.2203 3.5657-0.69764 3.5657-0.69764l0.0026 5.2e-4 0.0026 5.2e-4s0.28604 0.0539 0.70021 0.27233l0.14366 0.076 0.04496-0.15607c0.17501-0.60577 0.7159-1.2292 1.8278-1.7286 1.5294-0.68681 2.8153-0.41548 3.7538 0.0434l0.07338 0.0362 0.06511-0.0501c0.25686-0.19674 0.57188-0.38428 0.9555-0.55655 1.6805-0.75467 3.0681-0.35385 4.0194 0.18397l0.08733 0.0491 0.0708-0.0703c0.29654-0.29374 0.70765-0.5748 1.2619-0.82372 2.0616-0.92581 3.6928-0.11637 4.5935 0.55707l0.18759 0.14056 0.02325-0.23358c0.08972-0.91006 0.66376-1.8923 2.3601-2.2753 0.28062-0.0634 0.5363-0.0932 0.76791-0.0956z" color="#000000" color-rendering="auto" dominant-baseline="auto" fill="#915429" image-rendering="auto" shape-rendering="auto" solid-color="#000000" style="font-feature-settings:normal;font-variant-alternates:normal;font-variant-caps:normal;font-variant-ligatures:normal;font-variant-numeric:normal;font-variant-position:normal;isolation:auto;mix-blend-mode:normal;shape-padding:0;text-decoration-color:#000000;text-decoration-line:none;text-decoration-style:solid;text-indent:0;text-orientation:mixed;text-transform:none;white-space:normal"/>
    <path d="m99.554 109.34s0.46772 1.2628 0.24555 1.8943c-0.22217 0.63142-0.38587 1.3915-0.94714 1.5902-0.56127 0.19879-2.8765 0.97053-3.3442 0.97053s-2.7011-0.15201-2.9466-0.40926-0.54957-0.1754-0.54957-0.1754l1.0841 0.84786 1.3714 0.34483 2.4555-0.15201 2.362-1.0056 0.93544-1.1459 0.12863-0.8419-0.32741-1.1927z" fill="#663417"/>
   </g>
   <g fill="none" stroke="#30110b" stroke-linecap="round">
    <g>
     <path d="m80.205 105.7s3.6876 2.1416 1.9348 3.2991" stroke-width=".29107px"/>
     <path d="m63.29 108.13s1.9097 0.52277 1.7343 1.4816" stroke-width=".29107px"/>
     <path d="m65.527 112.06s1.637-0.43264 1.4967-1.2044" stroke-width=".20375"/>
     <g stroke-width=".29107px">
      <path d="m78.659 109.92s-1.1225 0-1.4499 0.86528"/>
      <path d="m92.927 107.7s1.9131 2.5607-0.25322 3.3379"/>
      <path d="m93.096 114.06s-1.8945-1.0422-1.3157-1.836"/>
     </g>
    </g>
    <g stroke-width=".20375">
     <path d="m85.348 108.4c-0.03307 0.0827-0.59531 0.62838-0.44648 0.87643" stroke-linejoin="round"/>
     <g>
      <path d="m81.032 106.4c-0.04961 0.0827-0.51263 0.31419-0.41341 0.59531"/>
      <path d="m81.619 106.79c-0.03307 0.63666 0.28939 0.62012-0.19017 1.017"/>
      <path d="m76.145 107.16s0.35553-0.0827 0.58704 0.16536"/>
      <path d="m75.542 106.54s-0.44648 0.3886-0.29766 0.58704"/>
      <path d="m78.196 110s-0.0083 0.83509 0.76068 1.0749"/>
      <path d="m65.749 106.22s0.71328 0.72496 0.5028 1.1693"/>
      <path d="m71.023 105.5c-0.05846 0.0701-1.029 0.73666-0.56127 1.4032"/>
      <path d="m78.623 104.95s-0.28063 0.0234-0.14032 0.99391"/>
      <path d="m89.907 105.75s0.94714 0.77174 0.52619 1.8007"/>
      <path d="m99.063 113.39s-0.63142-0.14032-0.61973-0.74836"/>
      <path d="m95.707 114.37s-0.86528-0.12863-0.60804-1.0524"/>
      <path d="m88.434 111.24s0.83021 0.3274 1.0173-0.60804"/>
      <path d="m82.868 111.82s-1.6253 0.90037-1.8709 0.44434"/>
      <path d="m61.914 112.67s1.6838-0.91206 1.0758-1.6838c-0.60804-0.77175-0.72497-0.8419-0.32741-1.1459"/>
      <path d="m58.757 111.53s0.72497 0.0702 1.3096-0.30401"/>
      <path d="m83.874 103.27s-0.6782 1.0991-0.45603 1.6253c0.22217 0.52619 0.35079 1.2512 0.35079 1.2512"/>
     </g>
    </g>
   </g>
   <path d="m95.766 107.23-0.96738-0.12402-1.0831 0.2067-0.78858 0.38281 0.30902 0.53497 0.28112 0.57877 0.14056 0.44649s-0.3638-1.108 0.43822-1.3229 0.93431-0.3638 1.7777-0.23978c0.84336 0.12402 2.1663 0.38861 2.1663 0.38861l-1.0418-0.54571-0.73587-0.24804z" fill-opacity="0"/>
   <g fill="#663417">
    <path d="m92.994 114.21s-0.18709 0.4268-0.89452 0.66651c-0.70743 0.2397-2.2041 0.39756-2.5374 0.4034-0.33325 6e-3 -1.2804 0.0117-1.2804 0.0117l1.5259 0.25725h1.5844l1.2336-0.2514 0.30987-0.5145z"/>
    <path d="m88.796 111.56s0.5028 0.57296-0.10524 1.1108c-0.60804 0.53788-2.21 1.333-2.4438 1.3798-0.23386 0.0468-2.2568 0.44434-3.1688-0.1637-0.91206-0.60804-0.85919-0.27345-0.85919-0.27345l0.23946 0.34361 0.60804 0.3274 2.0814 0.49111h1.5552l1.2979-0.60804 1.0641-0.95883 0.18709-0.94713z"/>
    <path d="m82.868 111.82s-2.2217 3.0168-5.636 2.8765c-3.4144-0.14032-5.9167-0.39756-5.9167-0.39756l1.4382 0.73666 3.0519 0.36248 3.391-0.0935 1.7773-0.45603 0.95883-0.70158 0.59634-1.0875 0.38587-0.92375z"/>
    <path d="m63.65 112.01s0.78996 2.7838 2.7895 3.0878c1.9995 0.30402 4.0809 0.32741 4.0809 0.32741l-2.4088 0.46772-1.4499-0.10524-1.3564-0.51449-1.0524-0.91206-0.60804-1.2745z"/>
    <path d="m75.542 106.54s-1.0458-0.87365-0.27406-1.318c0.77174-0.44434-1.0902 0.75304-1.0902 0.75304l0.63416 0.20578z"/>
    <path d="m70.216 105.78s-1.4499 1.0641-1.2628 1.7423c0.18709 0.6782 0.37418 1.7189 1.3447 1.9995 0.97052 0.28063-0.61973-0.18709-0.61973-0.18709l-0.79513-0.58465-0.35079-0.91206 0.30402-1.1576 0.22036-0.31397z"/>
    <path d="m76.534 109.82s-2.0588-0.51263-3.423-0.28939c-1.3814 0.22604 0.76894-4e-3 0.76894-4e-3s1.7694-0.2191 2.6541 0.29353z"/>
    <path d="m85.885 108.79s-0.50865-0.84774 0.07016-1.485c0.5788-0.63727 1.8241-1.2687 2.286-1.3447 0.46188-0.076 1.3389-0.25725 1.3389-0.25725s-1.1167-0.25725-1.1518-0.23971c-0.03508 0.0175-0.97637 0.15786-0.97637 0.15786l-0.81851 0.3274-0.76589 0.40926-0.61388 0.61389-0.11693 0.64311 0.21125 0.78711z"/>
   </g>
   <g fill="none" stroke="#30110b" stroke-linecap="round">
    <g stroke-width=".20375">
     <path d="m68.322 115.79s0.93544-0.42095 1.2862-1.029"/>
     <path d="m66.428 115.67s0.21047-2.1281 1.0524-2.9934"/>
     <path d="m64.463 114.52s-0.24556-0.77174 0.53788-1.4499"/>
    </g>
    <g stroke-width=".29107px">
     <path d="m69.057 106.36s-1.3699 1.9762 0.48214 2.9023c1.8521 0.92605 3.5719 0.26459 3.5719 0.26459"/>
     <path d="m69.903 109.45s-2.0671-0.46303-1.9678 0.59531"/>
     <path d="m77.418 110.33c-0.04961-0.0331 0.0083-0.4961-0.8847-0.51263"/>
     <path d="m82.219 113.62s0.25495-0.36424 0.5799-1.079c0.32495-0.71482-0.25469-1.6888-0.4479-1.9747"/>
     <path d="m82.915 112.14s0.37418-0.58465 0.80682-0.87697"/>
    </g>
    <g stroke-width=".20375">
     <path d="m83.862 114.57s1.8709-0.1754 1.754-0.94714"/>
     <path d="m74.355 115.24s0.79513-0.90037 0.71327-2.1749"/>
     <path d="m77.887 115.35s1.0991-2.0697 0.31571-3.0753"/>
    </g>
    <path d="m72.004 114.7s-2.3332-1.1156-1.771-1.9755c0.56224-0.85989 1.5875-0.95911 1.8521-0.76067" stroke-width=".29107px"/>
    <path d="m87.151 114.62s2.2532-1.0125 2.0778-2.2286c-0.1754-1.2161-1.5552-1.5902-1.8592-1.6487" stroke-width=".29107px"/>
    <path d="m90.246 115.48s0.71328-0.67819 0.47942-1.906" stroke-width=".20375"/>
    <path d="m86.09 106.26s-1.2382 0.61919-0.87437 1.5866c0.3638 0.96738 0.66939 0.94201 0.66939 0.94201" stroke-width=".29107px"/>
   </g>
   <g fill="#30110b">
    <circle cx="96.83" cy="108.69" r=".34361"/>
    <circle cx="95.471" cy="108.59" r=".74118"/>
    <circle cx="96.336" cy="109.55" r=".37869"/>
    <circle cx="92.06" cy="108.82" r=".50967"/>
    <circle cx="92.126" cy="109.87" r=".32777"/>
    <circle cx="97.573" cy="113.15" r=".39039"/>
    <circle cx="87.696" cy="113.14" r=".50967"/>
    <circle cx="83.376" cy="110.6" r=".29684"/>
    <circle cx="84.477" cy="104.45" r=".35531"/>
    <circle cx="85.025" cy="104.91" r=".25007"/>
    <circle cx="79.079" cy="107.97" r=".74118"/>
    <circle cx="76.342" cy="110.93" r=".40218"/>
    <circle cx="81.337" cy="113.1" r=".34361"/>
    <circle cx="75.432" cy="110.53" r=".3195"/>
    <circle cx="72.757" cy="107.77" r=".43716"/>
    <circle cx="71.532" cy="108.25" r=".74118"/>
    <circle cx="75.366" cy="111.38" r=".40218"/>
    <circle cx="65.743" cy="108.27" r=".367"/>
    <circle cx="66.546" cy="108.96" r=".46055"/>
    <circle cx="60.211" cy="108.95" r=".41377"/>
    <circle cx="61.138" cy="108.6" r=".34361"/>
    <circle cx="73.076" cy="114.26" r=".36084"/>
    <circle cx="92.157" cy="114.77" r=".21675"/>
    <circle cx="73.685" cy="114.48" r=".13826"/>
   </g>
   <path d="m62.995 112.27s1.2044-1.0407 1.3213-1.9527 0.15832 0.78907 0.15832 0.78907l-0.41556 0.60241-0.40948 0.29708z" fill="#663417"/>
   <path d="m83.462 103.08v1e-3c-0.25221 3e-3 -0.52577 0.0348-0.82269 0.1018-1.668 0.37663-2.3527 1.365-2.5172 2.3151-0.97114-0.68094-2.6382-1.4123-4.6979-0.48731-0.54045 0.24271-0.94904 0.52115-1.2656 0.81804-0.99851-0.54319-2.4553-0.92887-4.1739-0.1571-0.37236 0.16722-0.67519 0.35362-0.93896 0.54828-0.98367-0.46433-2.3385-0.72634-3.9088-0.0212-1.0854 0.48742-1.6774 1.1146-1.9156 1.7668-0.33145-0.1492-0.64202-0.24799-0.64234-0.24805h-5.16e-4c-0.01564-4e-3 -2.4488-0.58974-3.8075 0.76894-0.69922 0.69922-0.74098 1.9096-0.2806 2.8887s1.4579 1.7416 2.8308 1.5084c0.83007-0.14096 1.5676-0.37971 2.1911-0.67489-0.09156 0.98909 0.29992 1.8931 0.98909 2.5621 0.74104 0.71938 1.8002 1.1818 2.9187 1.2387 1.8061 0.0918 3.5053-0.41031 4.5992-1.1674 0.33278 0.17092 0.69666 0.30674 1.095 0.37672 1.1728 0.20604 3.2343 0.41006 5.118 0.293 0.94187-0.0585 1.8386-0.19673 2.5616-0.46147 0.66093-0.242 1.1727-0.60215 1.4268-1.11 0.49754 0.36305 1.0297 0.62768 1.3488 0.70745 0.29251 0.0731 0.92895 0.20914 1.6273 0.27286 0.65743 0.06 1.3546 0.0458 1.8955-0.14987 0.13287 0.24616 0.32409 0.44583 0.57568 0.54468 0.52954 0.20802 1.6143 0.36919 2.6712 0.39584 0.52842 0.0133 1.0465-9e-3 1.48-0.0822 0.43349-0.0736 0.78739-0.18895 0.98599-0.42065l0.0088-0.01 0.0062-0.0114c0.19166-0.3399 0.28827-0.65466 0.3545-0.95963 0.45882 0.17898 0.94966 0.2982 1.4573 0.32401 1.4892 0.0757 2.9125-0.25099 3.9791-0.79065s1.7962-1.2962 1.8237-2.1192c0.0523-1.5695-1.2774-2.976-1.2774-2.976l-0.0052-6e-3 -0.0057-5e-3s-0.83646-0.72027-2.0361-1.2149c-1.1693-0.48215-2.704-0.73598-4.1403 0.0977-0.192-0.26451-0.37724-0.48783-0.37724-0.48783l-0.0052-6e-3 -0.0062-5e-3s-0.8902-0.76698-2.1523-1.2619c-1.2093-0.47426-2.7815-0.66882-4.2261 0.28319-0.0113-0.1008-0.02491-0.25554-0.02532-0.25787-8.32e-4 -9e-3 -0.06329-0.68019-0.42891-1.3575-0.36808-0.6819-1.0678-1.3769-2.2867-1.3643zm0.0031 0.26562c1.1196-0.0116 1.7116 0.5973 2.0505 1.2252 0.33896 0.62796 0.39946 1.2625 0.39946 1.2625l5.16e-4 6e-3 1e-3 5e-3s0.03042 0.16934 0.04134 0.42839l0.01085 0.24857 0.19999-0.1478c1.4061-1.0374 2.9485-0.82584 4.1636-0.34933 1.2079 0.47371 2.0596 1.2022 2.0696 1.2108 4e-3 4e-3 0.18751 0.20495 0.416 0.53899l0.07131 0.10438 0.10749-0.0672c1.3754-0.85706 2.8566-0.60278 4.0127-0.12609 1.1483 0.47348 1.9462 1.1561 1.957 1.1653 0.0069 8e-3 1.2505 1.3748 1.2035 2.7822-0.0222 0.66738-0.65889 1.3763-1.679 1.8924-1.0201 0.51612-2.4038 0.83553-3.8458 0.76222-0.52197-0.0265-1.0313-0.14843-1.4971-0.34571l-0.15503-0.0656-0.02739 0.16588c-0.05034 0.30475-0.16913 0.63754-0.36949 0.99735-0.12006 0.1356-0.41827 0.26071-0.82166 0.32918-0.40741 0.0691-0.91219 0.0917-1.4289 0.0785-1.0333-0.026-2.1266-0.19885-2.5807-0.37724-0.21629-0.085-0.38753-0.25624-0.49196-0.49661l-0.05219-0.1204-0.12092 0.0512c-0.46849 0.19922-1.2007 0.21541-1.8795 0.15348-0.67881-0.0619-1.3076-0.19576-1.587-0.26562-0.27649-0.0691-0.87662-0.35091-1.3777-0.74156l-0.14159-0.11058-0.06356 0.16846c-0.18261 0.48593-0.66344 0.84396-1.3477 1.0945s-1.5609 0.38789-2.4872 0.44545c-1.8526 0.11513-3.9061-0.0874-5.056-0.28939-0.39916-0.0701-0.76719-0.19981-1.0919-0.37569l-0.07286-0.0393-0.06718 0.0481c-1.0276 0.73356-2.7157 1.2438-4.4943 1.1534-1.054-0.0536-2.0566-0.49345-2.7476-1.1643-0.691-0.67081-1.0715-1.5627-0.90537-2.5482l0.04444-0.26097-0.23513 0.12093c-0.62564 0.32271-1.4235 0.57964-2.313 0.7307-1.2601 0.21399-2.1256-0.46419-2.5471-1.3606-0.42152-0.89646-0.36406-1.9965 0.22841-2.589 1.2203-1.2203 3.5657-0.69763 3.5657-0.69763l0.0026 5.2e-4 0.0026 5.1e-4s0.28604 0.0539 0.70021 0.27234l0.14366 0.076 0.04496-0.15606c0.17501-0.60577 0.7159-1.2293 1.8278-1.7286 1.5294-0.68681 2.8153-0.41547 3.7538 0.0434l0.07338 0.0362 0.06511-0.0501c0.25686-0.19674 0.57188-0.38429 0.9555-0.55656 1.6805-0.75467 3.0681-0.35385 4.0194 0.18397l0.08733 0.0496 0.0708-0.0708c0.29654-0.29373 0.70765-0.5748 1.2619-0.82372 2.0616-0.92581 3.6928-0.11637 4.5935 0.55707l0.18759 0.14056 0.02325-0.23357c0.08972-0.91006 0.66376-1.8923 2.3601-2.2753 0.28062-0.0634 0.5363-0.0932 0.76791-0.0956z" color="#000000" color-rendering="auto" dominant-baseline="auto" fill="#30110b" image-rendering="auto" shape-rendering="auto" solid-color="#000000" style="font-feature-settings:normal;font-variant-alternates:normal;font-variant-caps:normal;font-variant-ligatures:normal;font-variant-numeric:normal;font-variant-position:normal;isolation:auto;mix-blend-mode:normal;shape-padding:0;text-decoration-color:#000000;text-decoration-line:none;text-decoration-style:solid;text-indent:0;text-orientation:mixed;text-transform:none;white-space:normal"/>
   <g fill="none" stroke="#30110b" stroke-linecap="round" stroke-width=".29107px">
    <path d="m63.65 112.01s0.84843-0.5487 0.82504-0.89949"/>
    <path d="m64.381 111.52c0.24555 0.1754 1.0875 0.28064 1.4032 0.87698"/>
    <path d="m74.177 105.98s2.0753 0.50706 2.1084 1.7308"/>
   </g>
  </g>
 </g>
</svg>
