<svg width="174.09" height="174.09" version="1.1" viewBox="0 0 46.060873 46.060873" xmlns="http://www.w3.org/2000/svg">
 <g transform="translate(-105.82 -70.093)">
  <circle cx="128.85" cy="93.123" r="23.03" fill="#f9f9f9"/>
  <g transform="translate(51.374 -7.3794)">
   <g>
    <ellipse cx="78.847" cy="102.81" rx="18.776" ry="1.8747" opacity=".12"/>
    <path d="m89.209 96.59h0.0039c0.0039-7.5e-5 1.6961-0.03211 3.3301 0.34375 0.81795 0.18815 1.6178 0.48162 2.1738 0.91602 0.55605 0.4344 0.87415 0.99135 0.77344 1.7773-0.04744 0.37026-0.28666 0.71828-0.70117 1.0469-0.41452 0.32859-1.0001 0.63008-1.7109 0.90039-1.4216 0.54063-3.3385 0.95655-5.3809 1.2598-4.0847 0.60644-8.6804 0.76843-10.877 0.65235-2.2032-0.11643-5.4364-0.52481-8.2793-0.96289-1.4215-0.21904-2.7465-0.44592-3.7969-0.64649-1.0504-0.20057-1.8334-0.37936-2.1406-0.48828-0.62491-0.22158-1.4001-0.79885-2.1172-1.3535-0.71707-0.55467-1.36-1.0862-1.8496-1.2207-0.19922-0.05474-0.52526-0.18102-0.75977-0.33398-0.11725-0.07648-0.20991-0.16101-0.25586-0.23242-0.04595-0.07141-0.05354-0.11183-0.02344-0.17383 0.0301-0.062 0.12395-0.15593 0.32227-0.25195 0.19832-0.09602 0.4962-0.19441 0.91406-0.28711 0.83572-0.1854 2.1496-0.3481 4.1348-0.45312 3.9686-0.20995 6.4625 0.10627 8.4629 0.45508 2.0003 0.34881 3.5171 0.73489 5.502 0.64844 4.4387-0.19333 7.2462-1.3251 12.275-1.5957z" color="#000000" color-rendering="auto" dominant-baseline="auto" fill="#915429" image-rendering="auto" shape-rendering="auto" solid-color="#000000" style="font-feature-settings:normal;font-variant-alternates:normal;font-variant-caps:normal;font-variant-ligatures:normal;font-variant-numeric:normal;font-variant-position:normal;isolation:auto;mix-blend-mode:normal;shape-padding:0;text-decoration-color:#000000;text-decoration-line:none;text-decoration-style:solid;text-indent:0;text-orientation:mixed;text-transform:none;white-space:normal"/>
    <path d="m92.953 96.907s2.3386 1.8709 1.2395 2.7596c-1.0991 0.88867-2.7596 0.42095-3.4144 0.95883s-2.2684 1.3798-2.9466 1.4032c-0.6782 0.0234-10.828 0.81851-12.02 0.44433-1.1927-0.37418-4.4667-1.3564-4.8175-1.0758-0.35079 0.28064-4.116-0.56127-4.42-0.79513-0.30402-0.23386-1.8007-0.25724-2.4789 0-0.6782 0.25725-3.5079-1.7773-4.2563-1.8007-0.74836-0.02339-1.9644-0.18709-1.9644-0.18709l1.0074 0.43916 3.0923 2.2407 2.6789 0.71107 8.5824 1.3064 5.3165 0.39687 4.3574-0.19017 4.1424-0.45475 4.3987-0.85163 2.4143-0.86816 1.2237-0.74414 0.58704-1.1079-0.23978-1.0831-1.2072-1.0997z" fill="#663417"/>
    <g fill="#30110b">
     <path transform="matrix(.26458 0 0 .26458 106.28 71.075)" d="m-64.568 95.438c-19.148 1.0282-29.773 5.2991-46.402 6.0234-7.351 0.32016-12.976-1.1048-20.574-2.4297-7.5982-1.3249-17.138-2.5319-32.213-1.7344-7.5339 0.39857-12.545 1.0125-15.799 1.7344-1.627 0.36094-2.8094 0.74445-3.668 1.1602-0.85856 0.4157-1.4156 0.86399-1.6836 1.416-0.26805 0.55202-0.15041 1.1683 0.14843 1.6328 0.29889 0.46453 0.74991 0.83999 1.2617 1.1738 1.0236 0.66768 2.2971 1.1517 3.1524 1.3867 1.366 0.37538 3.927 2.3413 6.6445 4.4434 2.7176 2.1021 5.6498 4.3412 8.2734 5.2715 1.3318 0.47222 4.2603 1.1217 8.2461 1.8828s8.9983 1.6218 14.381 2.4512c10.765 1.6588 22.996 3.2085 31.395 3.6523 8.4238 0.44519 25.789-0.17628 41.309-2.4805 7.76-1.1521 15.052-2.7237 20.545-4.8125 2.7463-1.0444 5.0412-2.2179 6.7324-3.5586 1.6912-1.3407 2.7948-2.8749 3.0176-4.6133 0.42346-3.3049-1.0051-5.8409-3.2988-7.6328-2.2938-1.7919-5.4364-2.9171-8.6074-3.6465-6.3421-1.4588-12.844-1.3203-12.844-1.3203h-0.0078zm0.03711 0.99609h0.01563c0.01474-2.84e-4 6.4101-0.12174 12.586 1.2988 3.0915 0.71111 6.1132 1.8211 8.2148 3.4629 2.1016 1.6418 3.3045 3.7461 2.9238 6.7168-0.1793 1.3994-1.0837 2.7151-2.6504 3.957-1.5667 1.2419-3.7803 2.3807-6.4668 3.4023-5.3729 2.0433-12.617 3.6157-20.336 4.7617-15.438 2.2921-32.808 2.9036-41.109 2.4648-8.327-0.44005-20.548-1.9829-31.293-3.6387-5.3725-0.82787-10.38-1.6853-14.35-2.4434-3.9699-0.75806-6.9308-1.434-8.0918-1.8457-2.3619-0.83747-5.2918-3.0189-8.002-5.1152-2.7102-2.0964-5.1398-4.1048-6.9902-4.6133-0.75295-0.20689-1.9848-0.68555-2.8711-1.2637-0.44316-0.28905-0.79314-0.60704-0.9668-0.87695-0.17367-0.26989-0.20361-0.42388-0.0898-0.6582 0.11376-0.23433 0.4692-0.58825 1.2188-0.95117 0.74955-0.36291 1.8758-0.73558 3.4551-1.0859 3.1586-0.70071 8.124-1.316 15.627-1.7129 14.999-0.7935 24.426 0.40237 31.986 1.7207 7.5603 1.3183 13.293 2.7779 20.795 2.4512 16.776-0.7307 27.387-5.0083 46.395-6.0312z" color="#000000" color-rendering="auto" dominant-baseline="auto" image-rendering="auto" shape-rendering="auto" solid-color="#000000" style="font-feature-settings:normal;font-variant-alternates:normal;font-variant-caps:normal;font-variant-ligatures:normal;font-variant-numeric:normal;font-variant-position:normal;isolation:auto;mix-blend-mode:normal;shape-padding:0;text-decoration-color:#000000;text-decoration-line:none;text-decoration-style:solid;text-indent:0;text-orientation:mixed;text-transform:none;white-space:normal"/>
     <circle cx="93.64" cy="99.834" r=".39686"/>
     <circle cx="91.417" cy="97.38" r=".27993"/>
     <circle cx="88.93" cy="97.754" r=".26824"/>
     <circle cx="88.62" cy="98.344" r=".24485"/>
     <circle cx="85.866" cy="99.346" r=".87627"/>
     <circle cx="84.823" cy="98.225" r=".37347"/>
     <circle cx="83.12" cy="99.471" r=".42024"/>
     <circle cx="76.191" cy="99.675" r=".43194"/>
     <circle cx="75.079" cy="100.25" r=".64241"/>
     <circle cx="68.266" cy="98.367" r=".30331"/>
     <circle cx="67.554" cy="99.019" r=".19808"/>
     <circle cx="66.035" cy="97.885" r=".24485"/>
     <circle cx="65.103" cy="98.918" r=".6658"/>
     <circle cx="63.356" cy="97.836" r=".26824"/>
     <circle cx="62.463" cy="98.105" r=".37347"/>
    </g>
   </g>
  </g>
 </g>
</svg>
